<svg xmlns="http://www.w3.org/2000/svg" fill='#393939' viewBox="0 0 64 32"><path d="M7.5 28.5H7V3.5h0.5V28.5zM10.9 3.5H8.4v25.1h2.6V3.5zM17 3.5h-2.7V16H17V3.5zM19.4 3.5h-1.1V16h1.1V3.5zM21.2 3.5h-0.8V16h0.8V3.5zM23.6 3.5h-0.7V16h0.7V3.5zM12.9 3.5h-1.2V16h1.2V3.5zM24.4 3.5H24V16h0.4V3.5zM25.5 3.5h-0.7V16h0.7V3.5zM29.2 3.5h-1.7V16h1.7V3.5zM30.5 3.5h-0.7V16h0.7V3.5zM35.1 3.5h-3.2V16h3.2V3.5zM37.5 3.5h-1.2V16h1.2V3.5zM39.6 3.5h-1V16h1V3.5zM41.7 3.5h-0.4V16h0.4V3.5zM50.8 16H52V3.5h-1.3V16zM44.1 3.5h-0.9V16h0.9V3.5zM47.5 3.5h-1.7V16h1.7V3.5zM49.3 3.5h-1.1V16h1.1V3.5zM53.4 3.5h-0.5v25.1h0.5V3.5zM57 3.5h-2.5v25.1H57V3.5z"/><path d="M17.3 18c0.4 0.2 0.7 0.5 0.9 1 0.2 0.4 0.3 0.9 0.3 1.5 0 0.6-0.1 1.1-0.3 1.5 -0.2 0.4-0.5 0.7-0.8 0.9 0.4 0.1 0.8 0.5 1 0.9 0.2 0.5 0.4 1.1 0.4 1.8 0 0.6-0.1 1.1-0.3 1.6 -0.2 0.5-0.5 0.8-0.9 1.1 -0.4 0.2-0.8 0.4-1.4 0.4h-3.3V17.6H16C16.5 17.6 17 17.7 17.3 18zM16.5 21.7c0.1-0.2 0.2-0.5 0.2-0.8 0-0.3-0.1-0.6-0.2-0.8 -0.1-0.2-0.3-0.3-0.6-0.3h-1.3V22H16C16.2 22 16.4 21.9 16.5 21.7zM16.7 26c0.2-0.2 0.3-0.5 0.3-0.9 0-0.3-0.1-0.6-0.3-0.8C16.5 24.1 16.3 24 16 24h-1.3v2.3H16C16.3 26.3 16.5 26.2 16.7 26z"/><path d="M24.6 18.3c0.5 0.5 0.9 1.1 1.2 1.9 0.3 0.8 0.5 1.7 0.5 2.8 0 1-0.2 2-0.5 2.8 -0.3 0.8-0.7 1.5-1.2 2 -0.5 0.5-1.1 0.7-1.8 0.7 -0.7 0-1.2-0.2-1.8-0.7 -0.5-0.5-0.9-1.1-1.2-2 -0.3-0.8-0.5-1.8-0.5-2.8 0-1 0.2-1.9 0.5-2.8 0.3-0.8 0.7-1.5 1.2-1.9 0.5-0.5 1.1-0.7 1.8-0.7C23.5 17.6 24.1 17.9 24.6 18.3zM22 20.4c-0.3 0.3-0.5 0.6-0.6 1.1 -0.2 0.5-0.2 1-0.2 1.6 0 0.6 0.1 1.1 0.2 1.6 0.2 0.5 0.4 0.9 0.6 1.1 0.3 0.3 0.6 0.4 0.9 0.4 0.3 0 0.6-0.1 0.9-0.4 0.3-0.3 0.5-0.7 0.6-1.1 0.2-0.5 0.2-1 0.2-1.6 0-0.6-0.1-1.1-0.2-1.6 -0.2-0.5-0.4-0.9-0.6-1.1 -0.3-0.3-0.6-0.4-0.9-0.4C22.5 20 22.2 20.1 22 20.4z"/><path d="M27.3 17.6H29v8.5h2.8v2.4h-4.5V17.6z"/><path d="M32.6 17.6h5.2v2.3h-3.5v2h3.2v2.3l-3.2 0v2.1h3.6v2.3h-5.3V17.6z"/><path d="M38.4 17.6h5.7V20h-2v8.6h-1.7V20h-2V17.6z"/><path d="M49.4 18.3c0.5 0.5 0.9 1.1 1.2 1.9 0.3 0.8 0.5 1.7 0.5 2.8 0 1-0.2 2-0.5 2.8 -0.3 0.8-0.7 1.5-1.2 2 -0.5 0.5-1.1 0.7-1.8 0.7 -0.7 0-1.2-0.2-1.8-0.7 -0.5-0.5-0.9-1.1-1.2-2 -0.3-0.8-0.5-1.8-0.5-2.8 0-1 0.2-1.9 0.5-2.8 0.3-0.8 0.7-1.5 1.2-1.9 0.5-0.5 1.1-0.7 1.8-0.7C48.3 17.6 48.9 17.9 49.4 18.3zM46.8 20.4c-0.3 0.3-0.5 0.6-0.6 1.1 -0.2 0.5-0.2 1-0.2 1.6 0 0.6 0.1 1.1 0.2 1.6 0.2 0.5 0.4 0.9 0.6 1.1 0.3 0.3 0.6 0.4 0.9 0.4 0.3 0 0.6-0.1 0.9-0.4 0.3-0.3 0.5-0.7 0.6-1.1 0.2-0.5 0.2-1 0.2-1.6 0-0.6-0.1-1.1-0.2-1.6 -0.2-0.5-0.4-0.9-0.6-1.1C48.3 20.1 48 20 47.7 20 47.3 20 47 20.1 46.8 20.4z"/></svg>
