<?xml version="1.0" encoding="UTF-8"?>
<!DOCTYPE svg PUBLIC "-//W3C//DTD SVG 1.1//EN" "http://www.w3.org/Graphics/SVG/1.1/DTD/svg11.dtd">
<!-- Creator: CorelDRAW 2020 (64 Bit) -->
<svg xmlns="http://www.w3.org/2000/svg" xml:space="preserve" width="43.3492mm" height="43.3492mm" version="1.1" style="shape-rendering:geometricPrecision; text-rendering:geometricPrecision; image-rendering:optimizeQuality; fill-rule:evenodd; clip-rule:evenodd"
viewBox="0 0 4334.92 4334.92"
 xmlns:xlink="http://www.w3.org/1999/xlink"
 xmlns:xodm="http://www.corel.com/coreldraw/odm/2003">
 <defs>
  <style type="text/css">
   <![CDATA[
    .fil1 {fill:#003F59}
    .fil0 {fill:#40AFDA}
   ]]>
  </style>
 </defs>
 <g id="Camada_x0020_1">
  <metadata id="CorelCorpID_0Corel-Layer"/>
  <g id="_2246200148960">
   <path class="fil0" d="M668.39 2830.97l21.56 0c20.33,-53.31 498.49,-519.73 599.69,-616.66 115.1,-110.25 -17.88,-124.74 76.13,-302.95 143.26,-271.56 575.85,-149.88 559.05,163.29 -5.65,105.28 -24.76,72.63 39.89,141.8 52.2,55.85 152.51,159.62 207.96,200.9 131.92,-38 148.28,-40.59 280.56,4.16 26.59,-16.18 102.69,-78.88 128.51,-102.71 166.04,-153.22 734.55,-763.61 836.31,-839.71l4.05 -10c-54.95,-20.84 -14.64,2.79 -63.75,-36.05l-288.76 -288.23c-117.07,-116.33 -222.78,-220.25 -338.8,-337.86 -115.77,-117.34 -222.41,-220.96 -339.63,-336.96 -110.5,-109.33 -187.44,-208.51 -330.36,-341.12 -75.61,46.56 -191.27,180.66 -262.26,251.49l-768.31 766.52c-175.78,173.07 -337.51,336.81 -511.97,511.19l-518.26 510.29c68.55,35.6 648.11,611.19 668.39,662.61z"/>
   <path class="fil0" d="M820.83 2963.94l-3.9 20.3 1221.32 1221.83c84.02,-49.71 428.54,-416.22 519.13,-508.84l642.98 -644.3c81,-79.64 171.31,-131.59 263,-248.45l381.43 -377.87c60.48,-60.56 220.56,-199.59 251.26,-278.23 -32.58,-21.67 -513.86,-477.56 -536.24,-535.03l-13.78 -3.96c-11.07,64.52 -5.7,43.59 -50.79,88.47l-421.95 419.34c-66.22,66.24 -458.06,435.74 -468.2,488.33 -11.84,61.41 41.32,223.29 -133.8,329.18 -133.05,80.44 -263.88,49.76 -355.79,-27.39 -156.22,-131.13 -62.63,-260.86 -100.46,-341.91 -9.63,-20.63 -209.9,-217.13 -238.43,-242.11 -54.59,12 -100.51,35.04 -164.43,31.44 -231.38,-13.02 -42.58,-112.94 -302.84,143.89 -94.32,93.08 -428.42,442.86 -488.51,465.31z"/>
   <path class="fil1" d="M3422.1 1469.09l-4.05 10 127.98 130.3 13.78 3.96c104.36,-73.98 245.13,-244.89 328.87,-315.24 54.17,-45.49 56.66,-6.4 147.77,-6.15 252.35,0.68 395.65,-304.42 222.42,-494.47 -154.33,-169.31 -498.08,-101 -519.27,155.49 -23.28,281.71 139.44,37.89 -317.5,516.11z"/>
   <path class="fil1" d="M816.93 2984.24l3.9 -20.3 -130.88 -132.97 -21.56 0 -212.04 218.92c-159.79,-25.46 -271.76,-51.66 -380.54,79.93 -93.19,112.72 -82.01,262.11 2.52,379.32 150.79,209.06 581.48,128.85 517.34,-295.67l221.26 -229.23z"/>
  </g>
 </g>
</svg>
