<?xml version="1.0" encoding="utf-8"?>
<!-- Generator: Adobe Illustrator 25.0.0, SVG Export Plug-In . SVG Version: 6.00 Build 0)  -->
<svg version="1.1" id="Camada_1" xmlns="http://www.w3.org/2000/svg" xmlns:xlink="http://www.w3.org/1999/xlink" x="0px" y="0px"
	 viewBox="0 0 512 512" style="enable-background:new 0 0 512 512;" xml:space="preserve">
<style type="text/css">
	.st0{clip-path:url(#SVGID_2_);}
	.st1{clip-path:url(#SVGID_4_);}
	.st2{fill:#E73941;}
	.st3{fill:#E94B3E;}
	.st4{fill:#E72F48;}
	.st5{fill:#E62552;}
	.st6{fill:#E61E53;}
	.st7{fill:#E6254B;}
	.st8{fill:#992D87;}
	.st9{fill:#9B348B;}
	.st10{fill:#FDC841;}
	.st11{fill:#FCBF39;}
	.st12{fill:#17B8D3;}
	.st13{fill:#FECE65;}
	.st14{fill:#345DA5;}
	.st15{fill:#4F2D87;}
	.st16{fill:#4B2F88;}
	.st17{fill:#472681;}
	.st18{fill:#F07F39;}
	.st19{fill:#ED6A3E;}
	.st20{fill:#EC6437;}
	.st21{fill:#2CB9D0;}
	.st22{fill:#76C4B8;}
	.st23{fill:#6CC3BF;}
	.st24{fill:#3C2771;}
	.st25{fill:#342D7F;}
	.st26{fill:#0D508B;}
	.st27{opacity:0.7;fill:#3C276F;}
	.st28{fill:#4E2583;}
	.st29{fill:#412778;}
	.st30{fill:#3C277F;}
	.st31{fill:#BE2084;}
	.st32{fill:#E72F60;}
	.st33{fill:#E7304B;}
	.st34{fill:#8BCBB8;}
	.st35{fill:#DBE497;}
	.st36{fill:#A9D3AA;}
	.st37{fill:#984694;}
	.st38{fill:#50348B;}
	.st39{fill:#952484;}
	.st40{fill:#972383;}
	.st41{fill:#B093B3;}
	.st42{fill:#4E2F88;}
	.st43{fill:#56368C;}
	.st44{fill:#57378D;}
	.st45{fill:#442A85;}
	.st46{fill:#4B328A;}
	.st47{fill:#573189;}
	.st48{fill:#5A378D;}
	.st49{fill:#642784;}
	.st50{fill:#8F2484;}
	.st51{fill:#65388D;}
	.st52{fill:#61388D;}
	.st53{fill:#73388D;}
	.st54{fill:#854091;}
	.st55{fill:#04A8CE;}
	.st56{fill:#16B8D4;}
	.st57{fill:#43BBC6;}
	.st58{fill:#DE9B8C;}
	.st59{fill:#D5C987;}
	.st60{fill:#FABB52;}
	.st61{fill:#F29051;}
	.st62{fill:#F7A838;}
	.st63{fill:#F1872D;}
	.st64{fill:#EF7A2D;}
	.st65{fill:#FBBA43;}
	.st66{fill:#F6A235;}
	.st67{fill:#F49634;}
	.st68{fill:#F6A234;}
	.st69{fill:#7B77B7;}
	.st70{fill:#5A9ACA;}
	.st71{fill:#05B2D4;}
	.st72{fill:#1CB7CE;}
	.st73{fill:#028FBD;}
	.st74{fill:#047CB5;}
	.st75{fill:#5A71B6;}
	.st76{fill:#0795B4;}
	.st77{fill:#323784;}
	.st78{fill:#42378B;}
	.st79{fill:#066A95;}
	.st80{fill:#33549B;}
	.st81{fill:#05779F;}
	.st82{fill:#EE732F;}
	.st83{fill:#ED6932;}
	.st84{fill:#EC6632;}
	.st85{fill:#E8413C;}
	.st86{fill:#EA5635;}
	.st87{fill:#FFDA6E;}
	.st88{fill:#F6D97D;}
	.st89{fill:#FECD53;}
	.st90{fill:#FFD053;}
	.st91{fill:#FDC948;}
	.st92{fill:#7C4A98;}
	.st93{fill:#603E91;}
	.st94{fill:#5A4797;}
	.st95{fill:#6A3E90;}
	.st96{fill:#7C4494;}
	.st97{fill:#6B4A98;}
	.st98{fill:#E65E8D;}
	.st99{fill:#F08078;}
	.st100{fill:#DF217E;}
	.st101{fill:#EF7763;}
	.st102{fill:#E72B6F;}
	.st103{fill:#8C529C;}
	.st104{fill:#9360A4;}
	.st105{fill:#924C97;}
	.st106{fill:#AB6DAB;}
	.st107{fill:#914895;}
	.st108{fill:#B25B9F;}
</style>
<g>
	<defs>
		<path id="SVGID_1_" d="M458.98,393.05c-26.94-37.47-51.26-90.43-72.94-158.88c35.31-26.01,61.71-48,79.21-65.97
			c17.49-17.96,26.25-35.54,26.25-52.73c0-17.19-5.11-34.76-15.33-52.73c-11.77,22.61-32.06,50.1-60.86,82.46
			c-28.03,31.5-62.27,63.95-102.61,97.35c0.75-6.29,1.52-12.68,2.33-19.3c10.22-83,15.33-126.2,15.33-129.61
			c0-8.98-3.72-15.95-11.15-20.91c-7.43-4.95-22-7.43-43.67-7.43c1.23,15.49,1.86,28.03,1.86,37.63c0,36.24-3.8,85.41-11.38,147.5
			c-7.59,62.1-11.85,99.19-12.78,111.27c-12.39-20.44-24.01-42.28-34.84-65.5c-4.64-9.6-10.77-22.22-18.35-37.86
			c-7.59-15.64-13.24-27.33-16.96-35.08c-34.69-69.99-58.38-113.89-71.08-131.71c-12.7-17.81-32.68-26.71-59.93-26.71
			c-13.63,0-27.87,4.49-42.74,13.47c0.62,0.62,2.47,1.86,5.57,3.72c12.7,7.75,22.92,17.35,30.66,28.8l4.18,6.04
			c-0.31,32.22-5.57,88.5-15.8,168.87C23.75,366.1,18.64,407.68,18.64,410.47c0,9.29,3.79,16.49,11.38,21.6
			c7.59,5.11,22.22,7.67,43.9,7.67c-1.24-16.1-1.86-28.96-1.86-38.56c0-40.88,4.18-91.36,12.54-151.45
			c4.33-29.73,7.12-49.86,8.36-60.39c13.31,23.85,35.85,66.2,67.6,127.06c31.74,60.86,50.41,95.32,55.98,103.37
			c12.08,18.27,26.32,27.41,42.74,27.41c16.41,0,34.22-6.2,53.43-18.58c-5.57-3.09-9.6-5.73-12.08-7.9
			c-0.62-5.26-0.93-13.62-0.93-25.09c0-22.53,2.56-57.89,7.66-105.93c8.5-5.76,16.47-11.41,23.86-16.95
			c15.48,40.88,29.88,73.87,43.2,98.95c9.29,17.04,18.35,30.66,27.18,40.88c8.83,10.22,19.28,18.9,31.36,26.01
			c12.08,7.12,23.85,10.69,35.31,10.69c11.46,0,22.92-1.55,34.38-4.65C485,426.03,470.44,408.84,458.98,393.05z"/>
	</defs>
	<clipPath id="SVGID_2_">
		<use xlink:href="#SVGID_1_"  style="overflow:visible;"/>
	</clipPath>
	<g class="st0">
		<defs>
			<rect id="SVGID_3_" x="0.39" y="0.39" width="511.22" height="511.22"/>
		</defs>
		<clipPath id="SVGID_4_">
			<use xlink:href="#SVGID_3_"  style="overflow:visible;"/>
		</clipPath>
		<g class="st1">
			<polygon id="triangle36_104_" class="st2" points="485.28,90.81 519.89,-13.86 580.45,5.77 			"/>
			<polygon id="triangle36_103_" class="st3" points="485.28,90.81 580.45,5.77 580.45,126.8 			"/>
			<polygon id="triangle36_102_" class="st4" points="580.45,5.77 624.76,73.27 580.45,126.8 			"/>
			<polygon id="triangle36_101_" class="st5" points="580.45,5.77 624.76,73.27 655.44,28.67 			"/>
			<polygon class="st6" points="519.89,-13.86 580.45,5.77 655.44,28.67 655.44,-20.46 			"/>
			<polygon class="st7" points="624.76,73.27 580.45,126.8 652.55,146.42 655.44,28.67 			"/>
			<polygon id="triangle36_100_" class="st8" points="87.28,100.63 107.47,-20.4 202.65,52.16 			"/>
			<polygon id="triangle36_99_" class="st9" points="202.65,52.16 294.93,-26.94 309.35,87.54 			"/>
			<polygon id="triangle36_98_" class="st10" points="540.08,522.59 623.71,480.06 626.6,538.94 			"/>
			<polygon class="st11" points="641.02,329.6 623.71,480.06 626.6,538.94 655.44,538.94 			"/>
			<polygon id="triangle36_97_" class="st12" points="237.25,516.05 540.08,522.59 381.46,493.15 			"/>
			<polygon id="triangle36_96_" class="st13" points="455.92,246.56 488.13,348.75 375.69,362.31 			"/>
			<polygon id="triangle36_95_" class="st14" points="9.42,362.31 113.24,359.04 98.82,437.54 			"/>
			<polygon id="triangle36_94_" class="st15" points="-55.06,101.04 -68.45,-4.05 -137.67,48.29 			"/>
			<polygon id="triangle36_93_" class="st16" points="-143.44,156.23 -55.06,101.04 -137.67,48.29 			"/>
			<polygon id="triangle36_92_" class="st17" points="-143.44,-23.67 -68.45,-4.05 -137.67,48.29 			"/>
			<polygon id="triangle36_91_" class="st18" points="432.59,141.03 455.92,246.56 503.68,179.91 			"/>
			<polygon id="triangle36_90_" class="st19" points="432.59,141.03 485.28,90.81 503.68,179.91 			"/>
			<polygon id="triangle36_89_" class="st20" points="485.28,90.81 580.45,126.8 503.68,179.91 			"/>
			<polygon id="triangle36_88_" class="st21" points="237.25,516.05 381.46,493.15 329.28,419.85 			"/>
			<polygon id="triangle36_87_" class="st22" points="292.62,327.65 375.69,362.31 329.28,419.85 			"/>
			<polygon id="triangle36_86_" class="st23" points="375.69,362.31 381.46,493.15 329.28,419.85 			"/>
			<polygon id="triangle36_85_" class="st24" points="-139.11,538.94 -71.73,444.29 -39.61,538.94 			"/>
			<polygon id="triangle36_84_" class="st25" points="-71.73,444.29 -11.74,498.72 -39.61,538.94 			"/>
			<polygon id="triangle36_83_" class="st26" points="-11.74,498.72 237.25,516.05 -39.61,538.94 			"/>
			<polygon id="triangle36_82_" class="st27" points="-139.11,538.94 -71.73,444.29 -139.11,404.83 			"/>
			<polygon id="triangle36_81_" class="st28" points="-111.71,267.45 9.42,362.31 -139.11,404.83 			"/>
			<polygon id="triangle36_80_" class="st29" points="-71.73,444.29 9.42,362.31 -139.11,404.83 			"/>
			<polygon id="triangle36_79_" class="st30" points="-143.44,156.23 -111.71,267.45 -139.11,404.83 			"/>
			<polygon id="triangle36_78_" class="st31" points="294.93,-26.94 309.35,87.54 401.64,-13.86 			"/>
			<polygon id="triangle36_77_" class="st32" points="432.59,141.03 485.28,90.81 401.64,-13.86 			"/>
			<polygon id="triangle36_76_" class="st33" points="485.28,90.81 519.89,-13.86 401.64,-13.86 			"/>
			<polygon id="triangle36_75_" class="st34" points="375.69,362.31 381.46,493.15 447.79,431 			"/>
			<polygon id="triangle36_74_" class="st35" points="375.69,362.31 488.13,348.75 447.79,431 			"/>
			<polygon id="triangle36_73_" class="st36" points="381.46,493.15 540.08,522.59 447.79,431 			"/>
			<polygon id="triangle36_72_" class="st37" points="87.28,100.63 202.65,52.16 149.33,179.91 			"/>
			<polygon id="triangle36_71_" class="st38" points="-143.44,156.23 -55.06,101.04 -49.18,168.63 			"/>
			<polygon id="triangle36_70_" class="st39" points="202.65,52.16 294.93,-26.94 193.99,-17.13 			"/>
			<polygon id="triangle36_69_" class="st40" points="107.47,-20.4 202.65,52.16 193.99,-17.13 			"/>
			<polygon id="triangle36_68_" class="st41" points="292.62,327.65 306.47,202.03 233.75,283.22 			"/>
			<polygon id="triangle36_67_" class="st42" points="-111.71,267.45 9.42,362.31 -56.92,231.47 			"/>
			<polygon id="triangle36_66_" class="st43" points="-49.18,168.63 26.72,238.01 -56.92,231.47 			"/>
			<polygon id="triangle36_65_" class="st44" points="9.42,362.31 26.72,238.01 -56.92,231.47 			"/>
			<polygon id="triangle36_64_" class="st45" points="-143.44,156.23 -111.71,267.45 -56.92,231.47 			"/>
			<polygon id="triangle36_63_" class="st46" points="-143.44,156.23 -49.18,168.63 -56.92,231.47 			"/>
			<polygon id="triangle36_62_" class="st47" points="-55.06,101.04 -68.45,-4.05 0.76,64.65 			"/>
			<polygon id="triangle36_61_" class="st48" points="-55.06,101.04 -49.18,168.63 0.76,64.65 			"/>
			<polygon id="triangle36_60_" class="st49" points="-68.45,-4.05 107.47,-20.4 0.76,64.65 			"/>
			<polygon id="triangle36_59_" class="st50" points="87.28,100.63 107.47,-20.4 0.76,64.65 			"/>
			<polygon id="triangle36_58_" class="st51" points="-49.18,168.63 0.76,64.65 37.13,133.25 			"/>
			<polygon id="triangle36_57_" class="st52" points="-49.18,168.63 26.72,238.01 37.13,133.25 			"/>
			<polygon id="triangle36_56_" class="st53" points="0.76,64.65 87.28,100.63 37.13,133.25 			"/>
			<polygon id="triangle36_55_" class="st54" points="87.28,100.63 149.33,179.91 37.13,133.25 			"/>
			<polygon id="triangle36_54_" class="st55" points="202.65,470.25 237.25,516.05 266.09,408.1 			"/>
			<polygon id="triangle36_53_" class="st56" points="237.25,516.05 329.28,419.85 266.09,408.1 			"/>
			<polygon id="triangle36_52_" class="st57" points="292.62,327.65 329.28,419.85 266.09,408.1 			"/>
			<polygon id="triangle36_51_" class="st58" points="292.62,327.65 306.47,202.03 384.34,221.65 			"/>
			<polygon id="triangle36_50_" class="st59" points="292.62,327.65 375.69,362.31 384.34,221.65 			"/>
			<polygon id="triangle36_49_" class="st60" points="375.69,362.31 455.92,246.56 384.34,221.65 			"/>
			<polygon id="triangle36_48_" class="st61" points="432.59,141.03 455.92,246.56 384.34,221.65 			"/>
			<polygon id="triangle36_47_" class="st62" points="455.92,246.56 488.13,348.75 531.42,293.62 			"/>
			<polygon id="triangle36_46_" class="st63" points="455.92,246.56 503.68,179.91 531.42,293.62 			"/>
			<polygon id="triangle36_45_" class="st64" points="503.68,179.91 570.33,256 531.42,293.62 			"/>
			<polygon id="triangle36_44_" class="st65" points="488.13,348.75 531.42,293.62 589.22,369.86 			"/>
			<polygon id="triangle36_43_" class="st66" points="531.42,293.62 570.33,256 589.22,369.86 			"/>
			<polygon id="triangle36_42_" class="st67" points="570.33,256 641.02,329.6 589.22,369.86 			"/>
			<polygon id="triangle36_41_" class="st68" points="623.71,480.06 641.02,329.6 589.22,369.86 			"/>
			<polygon id="triangle36_40_" class="st69" points="170.92,254.36 233.75,283.22 191.54,375.41 			"/>
			<polygon id="triangle36_39_" class="st70" points="233.75,283.22 292.62,327.65 191.54,375.41 			"/>
			<polygon id="triangle36_38_" class="st71" points="202.65,470.25 266.09,408.1 191.54,375.41 			"/>
			<polygon id="triangle36_37_" class="st72" points="266.09,408.1 292.62,327.65 191.54,375.41 			"/>
			<polygon id="triangle36_36_" class="st73" points="98.82,437.54 202.65,470.25 191.54,375.41 			"/>
			<polygon id="triangle36_35_" class="st74" points="98.82,437.54 113.24,359.04 191.54,375.41 			"/>
			<polygon id="triangle36_34_" class="st75" points="113.24,359.04 170.92,254.36 191.54,375.41 			"/>
			<polygon id="triangle36_33_" class="st76" points="202.65,470.25 237.25,516.05 46.91,483.33 			"/>
			<polygon id="triangle36_32_" class="st77" points="-71.73,444.29 -11.74,498.72 46.91,483.33 			"/>
			<polygon id="triangle36_31_" class="st78" points="-71.73,444.29 9.42,362.31 46.91,483.33 			"/>
			<polygon id="triangle36_30_" class="st79" points="-11.74,498.72 237.25,516.05 46.91,483.33 			"/>
			<polygon id="triangle36_29_" class="st80" points="9.42,362.31 98.82,437.54 46.91,483.33 			"/>
			<polygon id="triangle36_28_" class="st81" points="98.82,437.54 202.65,470.25 46.91,483.33 			"/>
			<polygon id="triangle36_27_" class="st82" points="503.68,179.91 570.33,256 601.43,204.35 			"/>
			<polygon id="triangle36_26_" class="st83" points="503.68,179.91 580.45,126.8 601.43,204.35 			"/>
			<polygon id="triangle36_25_" class="st84" points="570.33,256 641.02,329.6 601.43,204.35 			"/>
			<polygon id="triangle36_24_" class="st85" points="580.45,126.8 652.55,146.42 601.43,204.35 			"/>
			<polygon id="triangle36_23_" class="st86" points="641.02,329.6 652.55,146.42 601.43,204.35 			"/>
			<polygon id="triangle36_22_" class="st87" points="447.79,431 488.13,348.75 548.73,417.91 			"/>
			<polygon id="triangle36_21_" class="st88" points="447.79,431 540.08,522.59 548.73,417.91 			"/>
			<polygon id="triangle36_20_" class="st89" points="488.13,348.75 589.22,369.86 548.73,417.91 			"/>
			<polygon id="triangle36_19_" class="st90" points="540.08,522.59 623.71,480.06 548.73,417.91 			"/>
			<polygon id="triangle36_18_" class="st91" points="589.22,369.86 623.71,480.06 548.73,417.91 			"/>
			<polygon id="triangle36_17_" class="st92" points="170.92,254.36 149.33,179.91 84.4,264.18 			"/>
			<polygon id="triangle36_16_" class="st93" points="9.42,362.31 26.72,238.01 84.4,264.18 			"/>
			<polygon id="triangle36_15_" class="st94" points="9.42,362.31 113.24,359.04 84.4,264.18 			"/>
			<polygon id="triangle36_14_" class="st95" points="26.72,238.01 37.13,133.25 84.4,264.18 			"/>
			<polygon id="triangle36_13_" class="st96" points="37.13,133.25 149.33,179.91 84.4,264.18 			"/>
			<polygon id="triangle36_12_" class="st97" points="113.24,359.04 170.92,254.36 84.4,264.18 			"/>
			<polygon id="triangle36_11_" class="st98" points="306.47,202.03 309.35,87.54 378.57,130.07 			"/>
			<polygon id="triangle36_10_" class="st99" points="306.47,202.03 384.34,221.65 378.57,130.07 			"/>
			<polygon id="triangle36_9_" class="st100" points="309.35,87.54 401.64,-13.86 378.57,130.07 			"/>
			<polygon id="triangle36_8_" class="st101" points="384.34,221.65 432.59,141.03 378.57,130.07 			"/>
			<polygon id="triangle36_7_" class="st102" points="401.64,-13.86 432.59,141.03 378.57,130.07 			"/>
			<polygon id="triangle36_6_" class="st103" points="170.92,254.36 149.33,179.91 208.2,156.58 			"/>
			<polygon id="triangle36_5_" class="st104" points="170.92,254.36 233.75,283.22 208.2,156.58 			"/>
			<polygon id="triangle36_4_" class="st105" points="149.33,179.91 202.65,52.16 208.2,156.58 			"/>
			<polygon id="triangle36_3_" class="st106" points="233.75,283.22 306.47,202.03 208.2,156.58 			"/>
			<polygon id="triangle36_2_" class="st107" points="202.65,52.16 309.35,87.54 208.2,156.58 			"/>
			<polygon id="triangle36_1_" class="st108" points="306.47,202.03 309.35,87.54 208.2,156.58 			"/>
		</g>
	</g>
</g>
</svg>
