<?xml version="1.0" encoding="UTF-8"?>
<!DOCTYPE svg PUBLIC "-//W3C//DTD SVG 1.1//EN" "http://www.w3.org/Graphics/SVG/1.1/DTD/svg11.dtd">
<!-- Creator: CorelDRAW 2020 (64 Bit) -->
<svg xmlns="http://www.w3.org/2000/svg" xml:space="preserve" width="43.3492mm" height="43.3492mm" version="1.1" style="shape-rendering:geometricPrecision; text-rendering:geometricPrecision; image-rendering:optimizeQuality; fill-rule:evenodd; clip-rule:evenodd"
viewBox="0 0 4334.92 4334.92"
 xmlns:xlink="http://www.w3.org/1999/xlink"
 xmlns:xodm="http://www.corel.com/coreldraw/odm/2003">
 <defs>
  <style type="text/css">
   <![CDATA[
    .fil1 {fill:#003F59}
    .fil0 {fill:#40AFDA}
    .fil2 {fill:#003F59;fill-rule:nonzero}
    .fil3 {fill:#40AFDA;fill-rule:nonzero}
   ]]>
  </style>
 </defs>
 <g id="Camada_x0020_1">
  <metadata id="CorelCorpID_0Corel-Layer"/>
  <g id="_2246200139936">
   <g>
    <path class="fil0" d="M1405.32 1974.78l10.96 0c10.34,-27.1 253.44,-264.23 304.89,-313.51 58.52,-56.05 -9.09,-63.42 38.71,-154.02 72.83,-138.06 292.76,-76.2 284.22,83.01 -2.87,53.53 -12.59,36.93 20.28,72.1 26.54,28.39 77.54,81.15 105.73,102.14 67.07,-19.32 75.39,-20.64 142.64,2.11 13.52,-8.23 52.21,-40.1 65.33,-52.22 84.42,-77.9 373.45,-388.22 425.19,-426.91l2.06 -5.09c-27.94,-10.59 -7.45,1.42 -32.41,-18.33l-146.81 -146.53c-59.52,-59.14 -113.26,-111.98 -172.25,-171.77 -58.86,-59.66 -113.07,-112.34 -172.67,-171.31 -56.18,-55.59 -95.3,-106.01 -167.95,-173.43 -38.45,23.67 -97.25,91.85 -133.34,127.86l-390.62 389.7c-89.36,87.99 -171.59,171.24 -260.29,259.89l-263.48 259.44c34.85,18.09 329.5,310.73 339.81,336.87z"/>
    <path class="fil0" d="M1482.83 2042.39l-1.99 10.32 620.93 621.18c42.71,-25.27 217.87,-211.61 263.93,-258.69l326.89 -327.57c41.19,-40.49 87.1,-66.9 133.72,-126.31l193.92 -192.12c30.74,-30.79 112.13,-101.47 127.74,-141.45 -16.57,-11.02 -261.25,-242.8 -272.63,-272.01l-7.01 -2.02c-5.62,32.81 -2.89,22.17 -25.82,44.98l-214.52 213.2c-33.67,33.68 -232.88,221.53 -238.03,248.27 -6.02,31.22 21,113.52 -68.03,167.35 -67.64,40.9 -134.16,25.3 -180.89,-13.92 -79.42,-66.67 -31.84,-132.62 -51.07,-173.83 -4.9,-10.49 -106.71,-110.39 -121.22,-123.09 -27.76,6.1 -51.1,17.82 -83.6,15.99 -117.64,-6.63 -21.65,-57.43 -153.96,73.15 -47.96,47.32 -217.82,225.15 -248.36,236.57z"/>
    <path class="fil1" d="M2805.33 1282.39l-2.06 5.09 65.06 66.24 7.01 2.02c53.06,-37.61 124.63,-124.51 167.2,-160.27 27.54,-23.13 28.81,-3.26 75.13,-3.13 128.3,0.34 201.15,-154.77 113.08,-251.39 -78.46,-86.08 -253.23,-51.35 -264,79.05 -11.84,143.22 70.89,19.26 -161.42,262.39z"/>
    <path class="fil1" d="M1480.84 2052.71l1.99 -10.32 -66.55 -67.61 -10.96 0 -107.8 111.3c-81.24,-12.94 -138.16,-26.26 -193.47,40.64 -47.38,57.31 -41.69,133.26 1.28,192.85 76.66,106.29 295.63,65.51 263.02,-150.32l112.49 -116.54z"/>
   </g>
   <g>
    <path class="fil2" d="M1272.69 2969.1l-2.77 2.44c-16.71,1.01 -26.29,1.85 -28.72,2.43 -4.79,1.35 -7.56,4.37 -8.4,9.16 -2.1,11.76 -3.19,37.21 -3.19,76.26l0 99.86c0,73.66 1.09,121.7 3.19,143.96l-3.19 2.27c-18.56,-3.11 -32.59,-5.38 -42.08,-6.64 -43.93,-49.38 -119.01,-139.5 -225.17,-270.19l0 160.92c0,39.06 1.09,64.42 3.19,76.26 0.84,4.79 3.61,7.82 8.4,9.08 2.43,0.67 12.09,1.51 28.81,2.51l2.43 2.44 0 16.71 -2.43 2.27c-18.9,-1.01 -36.46,-1.51 -52.67,-1.51 -18.89,0 -37.79,0.5 -56.86,1.51l-2.43 -2.27 0 -16.71 2.43 -2.44c16.72,-1 26.38,-1.84 28.81,-2.51 4.79,-1.26 7.56,-4.29 8.32,-9.08 2.18,-11.84 3.27,-37.2 3.27,-76.26l0 -130.18c0,-39.05 -1.09,-64.5 -3.27,-76.26 -0.76,-4.79 -3.53,-7.81 -8.32,-9.16 -2.43,-0.58 -12.09,-1.42 -28.81,-2.43l-2.43 -2.44 0 -16.71 2.43 -2.27c15.63,1.01 30.41,1.51 44.52,1.51 22.17,0 40.56,-0.5 55.18,-1.51 59.04,78.78 128.42,163.19 208.12,253.23l0 -143.96c0,-39.05 -1.09,-64.5 -3.19,-76.26 -0.84,-4.79 -3.61,-7.81 -8.31,-9.16 -2.52,-0.58 -12.1,-1.42 -28.81,-2.43l-2.52 -2.44 0 -16.71 2.52 -2.27c18.31,1.01 35.78,1.51 52.41,1.51 21.16,0 40.14,-0.5 57.02,-1.51l2.52 2.27 0 16.71zm397.1 327.22l-2.44 2.52c-26.87,-1.01 -45.52,-1.51 -55.85,-1.51 -9.24,0 -23.69,0.5 -43.59,1.51 -3.78,-8.23 -12.18,-19.82 -25.28,-34.77l-73.16 -83.4c-15.87,-18.06 -33,-34.6 -51.4,-49.64l0 58.54c0,39.06 1.1,64.42 3.2,76.26 0.84,4.79 3.61,7.82 8.39,9.08 2.44,0.67 12.01,1.51 28.81,2.51l2.44 2.44 0 16.46 -2.19 2.52c-16.46,-1.01 -41.74,-1.51 -75.84,-1.51 -35.27,0 -60.55,0.5 -75.75,1.51l-2.44 -2.27 0 -16.71 2.44 -2.44c16.71,-1 26.28,-1.84 28.8,-2.51 4.71,-1.26 7.48,-4.29 8.32,-9.08 2.18,-11.84 3.19,-37.2 3.19,-76.26l0 -130.18c0,-39.05 -1.01,-64.5 -3.19,-76.26 -0.84,-4.79 -3.61,-7.81 -8.32,-9.16 -2.52,-0.58 -12.09,-1.42 -28.8,-2.43l-2.44 -2.44 0 -16.71 2.44 -2.27c15.7,1.01 40.98,1.51 75.75,1.51 35.61,0 60.89,-0.5 75.84,-1.51l2.19 2.27 0 16.97 -2.44 2.18c-16.8,1.01 -26.37,1.85 -28.81,2.43 -4.78,1.35 -7.55,4.37 -8.39,9.16 -2.1,11.76 -3.2,37.21 -3.2,76.26l0 61.06c30.66,-28.56 52.66,-49.72 65.93,-63.49l34.94 -36.2c12.01,-12.43 27.3,-29.57 46.03,-51.15l0 -16.97 2.69 -2.52c12.68,1.01 25.03,1.51 37.2,1.51 14.28,0 31,-0.5 50.15,-1.51l2.51 2.52 0 15.2 -2.51 2.44c-18.99,0 -33.1,3.11 -42.33,9.15 -13.28,8.82 -38.47,30.83 -75.51,65.93l-49.72 47.21c7.05,9.57 18.56,23.6 34.43,42.07l55.18 64c40.82,47.46 64.42,72.57 70.81,75.59 3.94,1.77 10.41,2.77 19.48,2.94l2.44 2.69 0 16.46zm528.53 -123.21l-2.44 2.69c-10.16,2.43 -16.12,5.88 -17.72,10.16 -1.68,4.37 -2.52,21 -2.52,49.89 0,13.94 0.67,27.72 2.02,41.32 -54.76,20.66 -104.48,30.99 -149.08,30.99 -58.79,0 -106.33,-16.46 -142.61,-49.3 -36.37,-32.92 -54.51,-77.77 -54.51,-134.55 0,-73.91 32.08,-126.65 96.16,-158.15 29.4,-14.44 66.69,-21.66 111.96,-21.66 26.29,0 52.83,2.85 79.79,8.56 22.09,4.79 39.56,10.16 52.41,16.3l2.18 4.36c-4.28,14.45 -7.81,39.56 -10.58,75.34l-2.69 2.44 -14.78 0 -2.44 -2.44c0,-3.11 -0.33,-9.57 -1,-19.32 -0.68,-9.74 -1.51,-16.63 -2.44,-20.57 -7.22,-9.83 -19.57,-18.15 -36.95,-25.03 -18.65,-7.23 -38.89,-10.84 -60.56,-10.84 -58.04,0 -98.1,23.44 -120.27,70.3 -10.16,21.67 -15.29,46.78 -15.29,75.34 0,45.6 12.18,83.4 36.45,113.47 25.28,31.16 58.12,46.69 98.69,46.69 21.42,0 42.25,-4.61 62.24,-13.77 1.09,-11.51 1.68,-27.21 1.68,-47.2 0,-16.29 -0.59,-26.12 -1.68,-29.56 -1.01,-2.61 -4.12,-4.54 -9.41,-5.63 -4.37,-1.01 -18.23,-2.27 -41.57,-3.7l-2.69 -2.52 0 -15.45 2.69 -2.44c23.85,0.59 48.71,0.84 74.83,0.68 15.12,-0.17 37.63,-0.42 67.69,-0.68l2.44 2.44 0 11.84zm219.71 -113.47l-1.68 43.76c-0.17,7.22 -0.5,15.45 -1.01,24.61l-10.33 3.19c-7.73,-11.09 -18.39,-16.71 -32,-16.71 -12.35,0 -22.51,4.95 -30.49,14.78 -4.95,6.05 -7.39,15.03 -7.39,26.79l0 57.62c0,11.92 0.59,28.64 1.68,49.97 0.34,6.05 2.1,10 5.21,11.76 3.11,1.85 14.53,3.02 34.18,3.69l2.44 2.27 0 14.95 -2.44 2.52c-24.1,-1.01 -48.04,-1.51 -71.81,-1.51 -29.39,0 -51.82,0.59 -67.19,1.76l-2.43 -2.52 0 -15.03 2.43 -2.44c15.71,-0.5 25.53,-1.68 29.23,-3.69 3.36,-1.43 5.12,-5.38 5.46,-11.76 1.17,-21.33 1.68,-44.26 1.68,-68.7l0 -35.19c0,-32.76 -1.18,-51.66 -3.7,-56.61 -1.59,-3.28 -5.12,-5.29 -10.5,-6.13 -2.01,-0.34 -9.15,-0.76 -21.41,-1.18l-2.52 -2.52 0 -13.77 2.52 -2.69c29.48,-2.77 60.55,-9.57 93.22,-20.41l5.38 3.19 -0.42 48.21c10.16,-11.84 22.43,-25.61 36.87,-41.32 6.72,-6.55 15.87,-9.83 27.55,-9.83 6.89,0 12.77,0.93 17.47,2.94zm240.87 236.18l-2.68 2.77c-13.78,-0.84 -29.57,-1.26 -47.46,-1.26 -13.94,0 -27.38,0.42 -40.14,1.26l-2.19 -2.77 2.19 -32.93 -47.71 36.37c-3.78,2.86 -9.24,4.54 -16.29,5.21 -2.77,0.33 -6.05,0.5 -9.83,0.5 -18.22,0 -32.17,-5.54 -41.91,-16.46 -9.83,-11 -14.7,-26.2 -14.7,-45.52 0,-25.62 8.15,-43.76 24.36,-54.42 17.55,-11.68 52.91,-22.18 106.08,-31.5 0,-26.04 -6.89,-43.51 -20.66,-52.41 -8.4,-5.37 -18.4,-8.15 -29.99,-8.15 -12.85,0 -22.93,2.69 -30.32,7.9l-9.32 22.93 -3.19 1.68 -12.6 -2.94 -1.68 -3.45 1.26 -29.06c27.04,-19.98 47.37,-31.32 60.98,-33.93 5.71,-1.17 13.18,-1.76 22.42,-1.76 32.25,0 55.35,8.48 69.12,25.36 10,12.35 15.04,31.16 15.04,56.61 0,6.22 -0.26,16.21 -0.76,29.99 -0.84,23.01 -1.26,38.29 -1.26,46.02 0,24.78 0.42,40.57 1.26,47.37 0.84,6.8 2.77,11.17 5.8,12.93 3.02,1.85 10.24,2.86 21.75,3.2l2.43 2.68 0 13.78zm-90.28 -57.28l0 -60.56c-27.05,5.88 -45.27,12.26 -54.76,19.07 -9.41,6.8 -14.11,17.22 -14.11,31.16 0,22.25 9.74,33.42 29.22,33.42 16.63,0 29.82,-7.72 39.65,-23.09zm43.59 -303.87l-80.72 94.74 -13.77 -7.39 0 -3.2 34.44 -83.9 53.83 -7.14 6.22 6.89zm333.35 40.82c0,10.5 -3.69,19.48 -11,26.96 -7.39,7.47 -16.29,11.17 -26.62,11.17 -10.5,0 -19.41,-3.7 -26.8,-11.17 -7.39,-7.48 -11.08,-16.46 -11.08,-26.96 0,-10.84 3.69,-19.91 11.17,-27.3 7.47,-7.39 16.37,-11.09 26.71,-11.09 10.16,0 18.98,3.7 26.45,11.09 7.48,7.39 11.17,16.46 11.17,27.3zm26.63 321.08l-2.44 2.52c-15.62,-1.17 -37.29,-1.76 -65.01,-1.76 -27.71,0 -49.3,0.59 -64.67,1.76l-2.52 -2.52 0 -15.03 2.52 -2.44c14.53,-0.5 23.52,-1.68 26.79,-3.52 3.28,-1.93 5.04,-5.88 5.38,-11.93 1.18,-21.33 1.76,-44.26 1.76,-68.7l0 -35.19c0,-31.83 -1.26,-50.65 -3.69,-56.61 -1.35,-3.28 -4.87,-5.29 -10.58,-6.13 -2.1,-0.34 -9.16,-0.76 -21.17,-1.18l-1.93 9.58 -2.52 2.43 -35.19 -0.25c-7.56,0 -13.69,0.08 -18.4,0.25l0 43.84c0,74.42 1.1,114.23 3.45,119.27 1.09,2.69 3.53,4.62 7.14,5.79 3.61,1.26 12.26,2.02 26.03,2.35l2.44 2.44 0 15.03 -2.44 2.52 -18.22 -0.75c-17.39,-0.67 -33.77,-1.01 -49.22,-1.01 -26.04,0 -46.78,0.59 -62.23,1.76l-2.44 -2.52 0 -15.03 2.44 -2.44c13.1,-0.5 21.33,-1.68 24.52,-3.52 3.19,-1.93 4.96,-5.88 5.29,-11.93 1.09,-21.33 1.68,-58.71 1.68,-111.96l0 -43.84c-3.44,-0.17 -8.9,0 -16.46,0.51 -2.94,0.16 -7.31,0.42 -13.02,0.75l-2.52 -2.52 0 -7.56 2.27 -3.44 18.39 -11.34c5.63,-3.44 8.91,-5.71 9.91,-6.89 0.93,-1.17 1.43,-2.68 1.43,-4.7l0 -3.69c0,-25.28 1.68,-42.5 4.96,-51.66 1.76,-4.95 5.2,-10.5 10.33,-16.71 1.42,-1.85 12.09,-12.18 32,-30.99l15.2 -14.53c4.45,-4.45 9.99,-9.66 16.8,-15.79 8.98,-6.55 19.99,-9.83 32.92,-9.83 5.46,0 11.67,1.18 18.73,3.44 -0.34,5.46 -0.67,14.2 -1.01,26.38 -0.17,6.72 0,14.86 0.51,24.61l-7.65 4.36c-7.89,-8.14 -17.89,-12.26 -29.98,-12.26 -8.9,0 -15.71,1.76 -20.41,5.38 -4.79,3.61 -7.81,8.98 -8.99,16.12 -1.26,7.14 -1.85,22.01 -1.85,44.68l0 34.44c24.45,0 43.68,-0.34 57.79,-1.01 22.68,-0.92 41.49,-3.44 56.61,-7.39 10.16,-2.6 23.01,-6.55 38.63,-11.76l5.12 3.19c-2.09,29.82 -3.19,55.02 -3.19,75.51l0 78.53c0,11.92 0.59,28.64 1.77,49.97 0.33,6.05 2.1,10 5.37,11.93 3.28,1.84 12.26,3.02 26.88,3.52l2.69 2.44 0 15.03zm219.71 -30.23l-10.75 24.35c-22.34,11.68 -44.35,17.47 -66.02,17.47 -36.53,0 -64.5,-10.49 -83.9,-31.49 -19.32,-21 -28.98,-49.81 -28.98,-86.34 0,-33.85 7.48,-59.46 22.34,-77.02 4.12,-4.95 11.93,-11.42 23.44,-19.48 23.6,-16.72 39.39,-26.71 47.37,-29.99 7.89,-3.27 20.07,-4.95 36.53,-4.95 22.26,0 40.74,3.36 55.35,10.08l2.43 4.45c-0.16,2.1 -1.25,9.74 -3.44,22.84l-2.69 16.8c-0.5,2.77 -1.26,13.77 -2.18,32.92l-2.52 2.52 -14.78 0 -2.44 -2.52c-1.01,-14.61 -2.1,-24.77 -3.44,-30.48 -7.22,-12.77 -21.08,-19.24 -41.57,-19.24 -34.78,0 -52.16,22.59 -52.16,67.7 0,32.84 6.97,58.62 20.91,77.52 14.28,19.48 34.35,29.31 60.3,29.31 15.71,0 29.57,-3.36 41.58,-10.16l4.62 5.71zm252.21 29.48l-2.68 2.77c-13.78,-0.84 -29.57,-1.26 -47.46,-1.26 -13.94,0 -27.38,0.42 -40.14,1.26l-2.19 -2.77 2.19 -32.93 -47.71 36.37c-3.78,2.86 -9.24,4.54 -16.29,5.21 -2.77,0.33 -6.05,0.5 -9.83,0.5 -18.22,0 -32.17,-5.54 -41.91,-16.46 -9.83,-11 -14.7,-26.2 -14.7,-45.52 0,-25.62 8.15,-43.76 24.36,-54.42 17.55,-11.68 52.91,-22.18 106.08,-31.5 0,-26.04 -6.89,-43.51 -20.66,-52.41 -8.4,-5.37 -18.4,-8.15 -29.99,-8.15 -12.85,0 -22.93,2.69 -30.32,7.9l-9.32 22.93 -3.19 1.68 -12.6 -2.94 -1.68 -3.45 1.26 -29.06c27.04,-19.98 47.37,-31.32 60.98,-33.93 5.71,-1.17 13.18,-1.76 22.42,-1.76 32.25,0 55.35,8.48 69.12,25.36 10,12.35 15.04,31.16 15.04,56.61 0,6.22 -0.26,16.21 -0.76,29.99 -0.84,23.01 -1.26,38.29 -1.26,46.02 0,24.78 0.42,40.57 1.26,47.37 0.84,6.8 2.77,11.17 5.8,12.93 3.02,1.85 10.24,2.86 21.75,3.2l2.43 2.68 0 13.78zm-90.28 -57.28l0 -60.56c-27.05,5.88 -45.27,12.26 -54.76,19.07 -9.41,6.8 -14.11,17.22 -14.11,31.16 0,22.25 9.74,33.42 29.22,33.42 16.63,0 29.82,-7.72 39.65,-23.09z"/>
    <path class="fil3" d="M1887.38 3604.67c0,40.62 -11.83,72.45 -35.5,95.55 -22.98,22.49 -54.42,33.7 -94.26,33.7 -37.64,0 -67.16,-10.59 -88.63,-31.78 -21.46,-21.18 -32.23,-50.65 -32.23,-88.4 0,-52.91 20.23,-89.59 60.63,-109.93 18.37,-9.24 40.96,-13.86 67.84,-13.86 38.37,0 68.29,10.03 89.64,30.2 21.64,20.45 32.51,48.63 32.51,84.52zm-50.88 8.56c0,-31.89 -6.37,-57.24 -19.21,-76.01 -12.85,-18.76 -31.61,-28.11 -56.34,-28.11 -32.74,0 -54.38,14.65 -65.08,44.06 -5.47,15.04 -8.23,31.95 -8.23,50.65 0,34.03 6.26,60.85 18.82,80.57 12.96,20.34 32.4,30.54 58.26,30.54 31.38,0 52.46,-15.44 63.22,-46.37 5.74,-16.4 8.56,-34.82 8.56,-55.33zm265.77 112.74l-1.63 1.86c-12.12,-0.79 -22.37,-1.18 -30.71,-1.18 -7.72,0 -18.93,0.39 -33.7,1.18l-1.63 -1.69c1.97,-24.51 2.99,-43.44 2.99,-56.79l0 -32.34c0,-26.82 -9.69,-40.29 -29.08,-40.29 -10.14,0 -18.03,3.5 -23.77,10.43 -4.85,5.8 -7.27,11.72 -7.27,17.63l0 30.88c0,28.51 0.73,46.03 2.14,52.51 0.9,3.83 7.27,5.86 19.16,6.08l1.63 1.69 0 10.03 -1.63 1.69c-9.36,-0.67 -23.33,-1.01 -41.92,-1.01 -19.72,0 -34.71,0.39 -45.08,1.18l-1.63 -1.69 0 -10.08 1.63 -1.64c10.59,-0.33 17.13,-1.12 19.67,-2.48 2.19,-0.95 3.38,-3.6 3.6,-7.88 0.79,-14.31 1.19,-29.7 1.19,-46.09l0 -23.61c0,-21.97 -0.85,-34.65 -2.48,-37.98 -1.13,-2.19 -3.5,-3.55 -7.1,-4.11 -1.36,-0.22 -6.14,-0.51 -14.37,-0.79l-1.63 -1.69 0 -9.24 1.63 -1.8c19.83,-1.86 40.68,-6.42 62.54,-13.69l3.66 2.14 -0.34 27.72 28.4 -23.78c7.27,-2.98 15.21,-4.45 23.95,-4.45 17.46,0 30.59,5.3 39.27,15.83 7.04,8.62 10.54,21.19 10.54,37.81 0,1.86 -0.17,9.52 -0.62,22.93 -0.46,13.47 -0.68,23.05 -0.68,28.74 0,16.62 0.28,27.21 0.84,31.77 0.51,4.57 1.81,7.5 3.78,8.68 1.97,1.24 7.72,1.92 17.18,2.14l1.47 1.64 0 9.74zm110.26 0.17l-1.63 1.69c-10.48,-0.79 -25.52,-1.18 -45.24,-1.18 -19.72,0 -34.71,0.39 -45.08,1.18l-1.63 -1.69 0 -10.08 1.63 -1.64c10.59,-0.33 17.13,-1.12 19.67,-2.48 2.19,-0.95 3.38,-3.6 3.6,-7.88 0.79,-14.31 1.19,-39.39 1.19,-75.11l0 -55.33c0,-23.1 -0.4,-41.81 -1.19,-56.12 -0.22,-4.05 -1.41,-6.76 -3.6,-8 -2.2,-1.24 -8.57,-2.08 -19.16,-2.42l-1.63 -1.8 0 -9.07 1.63 -1.81c21.24,-2.31 42.54,-6.87 63.89,-13.69l3.44 1.97c0,2.99 -0.17,8.4 -0.45,16.34 -1.13,26.32 -1.69,55.39 -1.69,87.34l0 42.59c0,35.72 0.39,60.8 1.18,75.11 0.23,4.28 1.41,6.93 3.61,7.88 2.53,1.36 9.07,2.15 19.66,2.48l1.8 1.64 0 10.08zm89.81 -215.4c0,7.05 -2.48,13.07 -7.44,18.09 -4.95,5.01 -10.87,7.49 -17.8,7.49 -7.04,0 -13.07,-2.48 -18.03,-7.49 -4.96,-5.02 -7.44,-11.04 -7.44,-18.09 0,-7.27 2.54,-13.35 7.55,-18.31 5.02,-4.96 10.99,-7.44 17.92,-7.44 6.82,0 12.73,2.48 17.69,7.44 5.02,4.96 7.55,11.04 7.55,18.31zm22.76 215.4l-1.63 1.69c-10.48,-0.79 -25.52,-1.18 -45.24,-1.18 -19.72,0 -34.71,0.39 -45.08,1.18l-1.63 -1.69 0 -10.08 1.63 -1.64c10.59,-0.33 17.13,-1.12 19.67,-2.48 2.19,-0.95 3.38,-3.6 3.6,-7.88 0.79,-14.31 1.19,-29.7 1.19,-46.09l0 -23.61c0,-21.35 -0.85,-33.98 -2.48,-37.98 -0.91,-2.19 -3.27,-3.55 -7.1,-4.11 -1.3,-0.22 -6.09,-0.51 -14.37,-0.79l-1.63 -1.69 0 -9.24 1.63 -1.8c21.13,-1.86 42.43,-6.42 63.89,-13.69l3.44 2.14c-1.41,20 -2.14,36.9 -2.14,50.65l0 52.68c0,8 0.39,19.22 1.18,33.53 0.23,4.28 1.41,6.93 3.61,7.88 2.53,1.36 9.07,2.15 19.66,2.48l1.8 1.64 0 10.08zm208.81 -0.17l-1.63 1.86c-12.12,-0.79 -22.37,-1.18 -30.71,-1.18 -7.72,0 -18.93,0.39 -33.7,1.18l-1.63 -1.69c1.97,-24.51 2.99,-43.44 2.99,-56.79l0 -32.34c0,-26.82 -9.69,-40.29 -29.08,-40.29 -10.14,0 -18.03,3.5 -23.77,10.43 -4.85,5.8 -7.27,11.72 -7.27,17.63l0 30.88c0,28.51 0.73,46.03 2.14,52.51 0.9,3.83 7.27,5.86 19.16,6.08l1.63 1.69 0 10.03 -1.63 1.69c-9.36,-0.67 -23.33,-1.01 -41.92,-1.01 -19.72,0 -34.71,0.39 -45.08,1.18l-1.63 -1.69 0 -10.08 1.63 -1.64c10.59,-0.33 17.13,-1.12 19.67,-2.48 2.19,-0.95 3.38,-3.6 3.6,-7.88 0.79,-14.31 1.19,-29.7 1.19,-46.09l0 -23.61c0,-21.97 -0.85,-34.65 -2.48,-37.98 -1.13,-2.19 -3.5,-3.55 -7.1,-4.11 -1.36,-0.22 -6.14,-0.51 -14.37,-0.79l-1.63 -1.69 0 -9.24 1.63 -1.8c19.83,-1.86 40.68,-6.42 62.54,-13.69l3.66 2.14 -0.34 27.72 28.4 -23.78c7.27,-2.98 15.21,-4.45 23.95,-4.45 17.46,0 30.59,5.3 39.27,15.83 7.04,8.62 10.54,21.19 10.54,37.81 0,1.86 -0.17,9.52 -0.62,22.93 -0.46,13.47 -0.68,23.05 -0.68,28.74 0,16.62 0.28,27.21 0.84,31.77 0.51,4.57 1.81,7.5 3.78,8.68 1.97,1.24 7.72,1.92 17.18,2.14l1.47 1.64 0 9.74zm164.24 -91.95c0,1.92 -0.05,4.68 -0.17,8.45l-1.8 2.31c-14.54,3.95 -33.81,5.92 -57.75,5.92 -4.34,0 -10.82,0.11 -19.5,0.28 -8.67,0.17 -15.27,0.23 -19.66,0.23 0.68,16.17 5.69,29.52 15.04,40.11 9.81,11.33 22.54,17.02 38.26,17.02 10.59,0 23.16,-3.66 37.64,-10.93l4 4.79 -7.27 16.34c-16.06,10.25 -33.53,15.38 -52.34,15.38 -24.74,0 -44.01,-6.99 -57.7,-20.96 -13.69,-13.97 -20.56,-33.92 -20.56,-59.78 0,-30.71 7.32,-51.72 21.97,-63.05 20.28,-15.61 39.44,-23.44 57.64,-23.44 19.66,0 34.93,5.69 45.69,17.02 10.99,11.66 16.51,28.45 16.51,50.31zm-43.1 -4.28c0,-29.69 -9.24,-44.57 -27.72,-44.57 -19.44,0 -29.19,14.76 -29.19,44.23l0 3.66c6.37,0.96 17.69,1.47 33.98,1.47 8.51,0 16.06,-0.51 22.82,-1.47 0.05,-1.52 0.11,-2.64 0.11,-3.32z"/>
   </g>
  </g>
 </g>
</svg>
