<?xml version="1.0" encoding="utf-8"?>
<!-- Generator: Adobe Illustrator 25.0.0, SVG Export Plug-In . SVG Version: 6.00 Build 0)  -->
<svg version="1.1" id="Camada_1" xmlns="http://www.w3.org/2000/svg" xmlns:xlink="http://www.w3.org/1999/xlink" x="0px" y="0px"
	 viewBox="0 0 595.28 202.07" style="enable-background:new 0 0 595.28 202.07;" xml:space="preserve">
<style type="text/css">
	.st0{clip-path:url(#SVGID_2_);}
	.st1{clip-path:url(#SVGID_4_);}
	.st2{fill:#E73941;}
	.st3{fill:#E94B3E;}
	.st4{fill:#E72F48;}
	.st5{fill:#E62552;}
	.st6{fill:#E61E53;}
	.st7{fill:#E6254B;}
	.st8{fill:#992D87;}
	.st9{fill:#9B348B;}
	.st10{fill:#FDC841;}
	.st11{fill:#FCBF39;}
	.st12{fill:#17B8D3;}
	.st13{fill:#FECE65;}
	.st14{fill:#345DA5;}
	.st15{fill:#4F2D87;}
	.st16{fill:#4B2F88;}
	.st17{fill:#472681;}
	.st18{fill:#F07F39;}
	.st19{fill:#ED6A3E;}
	.st20{fill:#EC6437;}
	.st21{fill:#2CB9D0;}
	.st22{fill:#76C4B8;}
	.st23{fill:#6CC3BF;}
	.st24{fill:#3C2771;}
	.st25{fill:#342D7F;}
	.st26{fill:#0D508B;}
	.st27{opacity:0.7;fill:#3C276F;}
	.st28{fill:#4E2583;}
	.st29{fill:#412778;}
	.st30{fill:#3C277F;}
	.st31{fill:#BE2084;}
	.st32{fill:#E72F60;}
	.st33{fill:#E7304B;}
	.st34{fill:#8BCBB8;}
	.st35{fill:#DBE497;}
	.st36{fill:#A9D3AA;}
	.st37{fill:#984694;}
	.st38{fill:#50348B;}
	.st39{fill:#952484;}
	.st40{fill:#972383;}
	.st41{fill:#B093B3;}
	.st42{fill:#4E2F88;}
	.st43{fill:#56368C;}
	.st44{fill:#57378D;}
	.st45{fill:#442A85;}
	.st46{fill:#4B328A;}
	.st47{fill:#573189;}
	.st48{fill:#5A378D;}
	.st49{fill:#642784;}
	.st50{fill:#8F2484;}
	.st51{fill:#65388D;}
	.st52{fill:#61388D;}
	.st53{fill:#73388D;}
	.st54{fill:#854091;}
	.st55{fill:#04A8CE;}
	.st56{fill:#16B8D4;}
	.st57{fill:#43BBC6;}
	.st58{fill:#DE9B8C;}
	.st59{fill:#D5C987;}
	.st60{fill:#FABB52;}
	.st61{fill:#F29051;}
	.st62{fill:#F7A838;}
	.st63{fill:#F1872D;}
	.st64{fill:#EF7A2D;}
	.st65{fill:#FBBA43;}
	.st66{fill:#F6A235;}
	.st67{fill:#F49634;}
	.st68{fill:#F6A234;}
	.st69{fill:#7B77B7;}
	.st70{fill:#5A9ACA;}
	.st71{fill:#05B2D4;}
	.st72{fill:#1CB7CE;}
	.st73{fill:#028FBD;}
	.st74{fill:#047CB5;}
	.st75{fill:#5A71B6;}
	.st76{fill:#0795B4;}
	.st77{fill:#323784;}
	.st78{fill:#42378B;}
	.st79{fill:#066A95;}
	.st80{fill:#33549B;}
	.st81{fill:#05779F;}
	.st82{fill:#EE732F;}
	.st83{fill:#ED6932;}
	.st84{fill:#EC6632;}
	.st85{fill:#E8413C;}
	.st86{fill:#EA5635;}
	.st87{fill:#FFDA6E;}
	.st88{fill:#F6D97D;}
	.st89{fill:#FECD53;}
	.st90{fill:#FFD053;}
	.st91{fill:#FDC948;}
	.st92{fill:#7C4A98;}
	.st93{fill:#603E91;}
	.st94{fill:#5A4797;}
	.st95{fill:#6A3E90;}
	.st96{fill:#7C4494;}
	.st97{fill:#6B4A98;}
	.st98{fill:#E65E8D;}
	.st99{fill:#F08078;}
	.st100{fill:#DF217E;}
	.st101{fill:#EF7763;}
	.st102{fill:#E72B6F;}
	.st103{fill:#8C529C;}
	.st104{fill:#9360A4;}
	.st105{fill:#924C97;}
	.st106{fill:#AB6DAB;}
	.st107{fill:#914895;}
	.st108{fill:#B25B9F;}
	.st109{fill:#383838;}
	.st110{fill:#909091;}
</style>
<g>
	<defs>
		<path id="SVGID_1_" d="M211.03,162.72c-12.13-16.87-23.07-40.71-32.83-71.52c15.89-11.71,27.78-21.61,35.65-29.69
			c7.87-8.08,11.82-16,11.82-23.74c0-7.74-2.3-15.65-6.9-23.73c-5.3,10.18-14.43,22.55-27.39,37.12
			c-12.62,14.18-28.03,28.79-46.19,43.82c0.34-2.83,0.68-5.71,1.05-8.69c4.6-37.36,6.9-56.81,6.9-58.34c0-4.04-1.67-7.18-5.02-9.41
			c-3.35-2.23-9.9-3.35-19.66-3.35c0.56,6.97,0.84,12.62,0.84,16.94c0,16.31-1.71,38.44-5.12,66.39
			c-3.42,27.95-5.33,44.65-5.75,50.08c-5.58-9.2-10.81-19.03-15.68-29.49c-2.09-4.32-4.85-10-8.26-17.04
			c-3.42-7.04-5.96-12.3-7.63-15.79c-15.62-31.5-26.28-51.27-32-59.29c-5.72-8.02-14.71-12.02-26.98-12.02
			c-6.14,0-12.55,2.02-19.24,6.06c0.28,0.28,1.11,0.84,2.51,1.67c5.71,3.49,10.32,7.81,13.8,12.97l1.88,2.72
			c-0.14,14.5-2.51,39.84-7.11,76.01c-4.6,36.18-6.9,54.89-6.9,56.15c0,4.18,1.71,7.42,5.12,9.72c3.41,2.3,10,3.45,19.76,3.45
			c-0.56-7.25-0.84-13.03-0.84-17.36c0-18.4,1.88-41.12,5.65-68.17c1.95-13.38,3.21-22.44,3.76-27.19
			c5.99,10.74,16.14,29.8,30.43,57.19c14.29,27.39,22.69,42.91,25.2,46.53c5.44,8.22,11.85,12.34,19.24,12.34
			c7.39,0,15.4-2.79,24.05-8.36c-2.51-1.39-4.32-2.58-5.44-3.56c-0.28-2.37-0.42-6.13-0.42-11.29c0-10.14,1.15-26.06,3.45-47.68
			c3.83-2.59,7.42-5.14,10.74-7.63c6.97,18.4,13.45,33.25,19.45,44.54c4.18,7.67,8.26,13.8,12.23,18.4
			c3.97,4.6,8.68,8.51,14.12,11.71c5.44,3.21,10.73,4.81,15.89,4.81c5.16,0,10.32-0.7,15.48-2.09
			C222.74,177.57,216.19,169.84,211.03,162.72z"/>
	</defs>
	<clipPath id="SVGID_2_">
		<use xlink:href="#SVGID_1_"  style="overflow:visible;"/>
	</clipPath>
	<g class="st0">
		<defs>
			<rect id="SVGID_3_" x="4.61" y="-14.02" width="230.11" height="230.11"/>
		</defs>
		<clipPath id="SVGID_4_">
			<use xlink:href="#SVGID_3_"  style="overflow:visible;"/>
		</clipPath>
		<g class="st1">
			<polygon id="triangle36_104_" class="st2" points="222.87,26.68 238.45,-20.44 265.71,-11.6 			"/>
			<polygon id="triangle36_103_" class="st3" points="222.87,26.68 265.71,-11.6 265.71,42.88 			"/>
			<polygon id="triangle36_102_" class="st4" points="265.71,-11.6 285.65,18.78 265.71,42.88 			"/>
			<polygon id="triangle36_101_" class="st5" points="265.71,-11.6 285.65,18.78 299.46,-1.29 			"/>
			<polygon class="st6" points="238.45,-20.44 265.71,-11.6 299.46,-1.29 299.46,-23.41 			"/>
			<polygon class="st7" points="285.65,18.78 265.71,42.88 298.16,51.71 299.46,-1.29 			"/>
			<polygon id="triangle36_100_" class="st8" points="43.72,31.1 52.81,-23.38 95.65,9.28 			"/>
			<polygon id="triangle36_99_" class="st9" points="95.65,9.28 137.19,-26.33 143.68,25.21 			"/>
			<polygon id="triangle36_98_" class="st10" points="247.53,221.03 285.18,201.89 286.48,228.4 			"/>
			<polygon class="st11" points="292.97,134.16 285.18,201.89 286.48,228.4 299.46,228.4 			"/>
			<polygon id="triangle36_97_" class="st12" points="111.23,218.09 247.53,221.03 176.13,207.78 			"/>
			<polygon id="triangle36_96_" class="st13" points="209.65,96.78 224.15,142.79 173.54,148.89 			"/>
			<polygon id="triangle36_95_" class="st14" points="8.67,148.89 55.4,147.42 48.91,182.75 			"/>
			<polygon id="triangle36_94_" class="st15" points="-20.36,31.28 -26.38,-16.02 -57.54,7.54 			"/>
			<polygon id="triangle36_93_" class="st16" points="-60.14,56.13 -20.36,31.28 -57.54,7.54 			"/>
			<polygon id="triangle36_92_" class="st17" points="-60.14,-24.85 -26.38,-16.02 -57.54,7.54 			"/>
			<polygon id="triangle36_91_" class="st18" points="199.15,49.28 209.65,96.78 231.15,66.78 			"/>
			<polygon id="triangle36_90_" class="st19" points="199.15,49.28 222.87,26.68 231.15,66.78 			"/>
			<polygon id="triangle36_89_" class="st20" points="222.87,26.68 265.71,42.88 231.15,66.78 			"/>
			<polygon id="triangle36_88_" class="st21" points="111.23,218.09 176.13,207.78 152.65,174.79 			"/>
			<polygon id="triangle36_87_" class="st22" points="136.15,133.29 173.54,148.89 152.65,174.79 			"/>
			<polygon id="triangle36_86_" class="st23" points="173.54,148.89 176.13,207.78 152.65,174.79 			"/>
			<polygon id="triangle36_85_" class="st24" points="-58.19,228.4 -27.86,185.79 -13.4,228.4 			"/>
			<polygon id="triangle36_84_" class="st25" points="-27.86,185.79 -0.86,210.29 -13.4,228.4 			"/>
			<polygon id="triangle36_83_" class="st26" points="-0.86,210.29 111.23,218.09 -13.4,228.4 			"/>
			<polygon id="triangle36_82_" class="st27" points="-58.19,228.4 -27.86,185.79 -58.19,168.03 			"/>
			<polygon id="triangle36_81_" class="st28" points="-45.86,106.19 8.67,148.89 -58.19,168.03 			"/>
			<polygon id="triangle36_80_" class="st29" points="-27.86,185.79 8.67,148.89 -58.19,168.03 			"/>
			<polygon id="triangle36_79_" class="st30" points="-60.14,56.13 -45.86,106.19 -58.19,168.03 			"/>
			<polygon id="triangle36_78_" class="st31" points="137.19,-26.33 143.68,25.21 185.22,-20.44 			"/>
			<polygon id="triangle36_77_" class="st32" points="199.15,49.28 222.87,26.68 185.22,-20.44 			"/>
			<polygon id="triangle36_76_" class="st33" points="222.87,26.68 238.45,-20.44 185.22,-20.44 			"/>
			<polygon id="triangle36_75_" class="st34" points="173.54,148.89 176.13,207.78 205.99,179.81 			"/>
			<polygon id="triangle36_74_" class="st35" points="173.54,148.89 224.15,142.79 205.99,179.81 			"/>
			<polygon id="triangle36_73_" class="st36" points="176.13,207.78 247.53,221.03 205.99,179.81 			"/>
			<polygon id="triangle36_72_" class="st37" points="43.72,31.1 95.65,9.28 71.65,66.78 			"/>
			<polygon id="triangle36_71_" class="st38" points="-60.14,56.13 -20.36,31.28 -17.71,61.71 			"/>
			<polygon id="triangle36_70_" class="st39" points="95.65,9.28 137.19,-26.33 91.75,-21.91 			"/>
			<polygon id="triangle36_69_" class="st40" points="52.81,-23.38 95.65,9.28 91.75,-21.91 			"/>
			<polygon id="triangle36_68_" class="st41" points="136.15,133.29 142.38,76.74 109.65,113.29 			"/>
			<polygon id="triangle36_67_" class="st42" points="-45.86,106.19 8.67,148.89 -21.19,89.99 			"/>
			<polygon id="triangle36_66_" class="st43" points="-17.71,61.71 16.46,92.94 -21.19,89.99 			"/>
			<polygon id="triangle36_65_" class="st44" points="8.67,148.89 16.46,92.94 -21.19,89.99 			"/>
			<polygon id="triangle36_64_" class="st45" points="-60.14,56.13 -45.86,106.19 -21.19,89.99 			"/>
			<polygon id="triangle36_63_" class="st46" points="-60.14,56.13 -17.71,61.71 -21.19,89.99 			"/>
			<polygon id="triangle36_62_" class="st47" points="-20.36,31.28 -26.38,-16.02 4.77,14.9 			"/>
			<polygon id="triangle36_61_" class="st48" points="-20.36,31.28 -17.71,61.71 4.77,14.9 			"/>
			<polygon id="triangle36_60_" class="st49" points="-26.38,-16.02 52.81,-23.38 4.77,14.9 			"/>
			<polygon id="triangle36_59_" class="st50" points="43.72,31.1 52.81,-23.38 4.77,14.9 			"/>
			<polygon id="triangle36_58_" class="st51" points="-17.71,61.71 4.77,14.9 21.14,45.78 			"/>
			<polygon id="triangle36_57_" class="st52" points="-17.71,61.71 16.46,92.94 21.14,45.78 			"/>
			<polygon id="triangle36_56_" class="st53" points="4.77,14.9 43.72,31.1 21.14,45.78 			"/>
			<polygon id="triangle36_55_" class="st54" points="43.72,31.1 71.65,66.78 21.14,45.78 			"/>
			<polygon id="triangle36_54_" class="st55" points="95.65,197.48 111.23,218.09 124.21,169.5 			"/>
			<polygon id="triangle36_53_" class="st56" points="111.23,218.09 152.65,174.79 124.21,169.5 			"/>
			<polygon id="triangle36_52_" class="st57" points="136.15,133.29 152.65,174.79 124.21,169.5 			"/>
			<polygon id="triangle36_51_" class="st58" points="136.15,133.29 142.38,76.74 177.43,85.58 			"/>
			<polygon id="triangle36_50_" class="st59" points="136.15,133.29 173.54,148.89 177.43,85.58 			"/>
			<polygon id="triangle36_49_" class="st60" points="173.54,148.89 209.65,96.78 177.43,85.58 			"/>
			<polygon id="triangle36_48_" class="st61" points="199.15,49.28 209.65,96.78 177.43,85.58 			"/>
			<polygon id="triangle36_47_" class="st62" points="209.65,96.78 224.15,142.79 243.64,117.97 			"/>
			<polygon id="triangle36_46_" class="st63" points="209.65,96.78 231.15,66.78 243.64,117.97 			"/>
			<polygon id="triangle36_45_" class="st64" points="231.15,66.78 261.15,101.04 243.64,117.97 			"/>
			<polygon id="triangle36_44_" class="st65" points="224.15,142.79 243.64,117.97 269.65,152.29 			"/>
			<polygon id="triangle36_43_" class="st66" points="243.64,117.97 261.15,101.04 269.65,152.29 			"/>
			<polygon id="triangle36_42_" class="st67" points="261.15,101.04 292.97,134.16 269.65,152.29 			"/>
			<polygon id="triangle36_41_" class="st68" points="285.18,201.89 292.97,134.16 269.65,152.29 			"/>
			<polygon id="triangle36_40_" class="st69" points="81.37,100.3 109.65,113.29 90.65,154.79 			"/>
			<polygon id="triangle36_39_" class="st70" points="109.65,113.29 136.15,133.29 90.65,154.79 			"/>
			<polygon id="triangle36_38_" class="st71" points="95.65,197.48 124.21,169.5 90.65,154.79 			"/>
			<polygon id="triangle36_37_" class="st72" points="124.21,169.5 136.15,133.29 90.65,154.79 			"/>
			<polygon id="triangle36_36_" class="st73" points="48.91,182.75 95.65,197.48 90.65,154.79 			"/>
			<polygon id="triangle36_35_" class="st74" points="48.91,182.75 55.4,147.42 90.65,154.79 			"/>
			<polygon id="triangle36_34_" class="st75" points="55.4,147.42 81.37,100.3 90.65,154.79 			"/>
			<polygon id="triangle36_33_" class="st76" points="95.65,197.48 111.23,218.09 25.54,203.37 			"/>
			<polygon id="triangle36_32_" class="st77" points="-27.86,185.79 -0.86,210.29 25.54,203.37 			"/>
			<polygon id="triangle36_31_" class="st78" points="-27.86,185.79 8.67,148.89 25.54,203.37 			"/>
			<polygon id="triangle36_30_" class="st79" points="-0.86,210.29 111.23,218.09 25.54,203.37 			"/>
			<polygon id="triangle36_29_" class="st80" points="8.67,148.89 48.91,182.75 25.54,203.37 			"/>
			<polygon id="triangle36_28_" class="st81" points="48.91,182.75 95.65,197.48 25.54,203.37 			"/>
			<polygon id="triangle36_27_" class="st82" points="231.15,66.78 261.15,101.04 275.15,77.78 			"/>
			<polygon id="triangle36_26_" class="st83" points="231.15,66.78 265.71,42.88 275.15,77.78 			"/>
			<polygon id="triangle36_25_" class="st84" points="261.15,101.04 292.97,134.16 275.15,77.78 			"/>
			<polygon id="triangle36_24_" class="st85" points="265.71,42.88 298.16,51.71 275.15,77.78 			"/>
			<polygon id="triangle36_23_" class="st86" points="292.97,134.16 298.16,51.71 275.15,77.78 			"/>
			<polygon id="triangle36_22_" class="st87" points="205.99,179.81 224.15,142.79 251.43,173.92 			"/>
			<polygon id="triangle36_21_" class="st88" points="205.99,179.81 247.53,221.03 251.43,173.92 			"/>
			<polygon id="triangle36_20_" class="st89" points="224.15,142.79 269.65,152.29 251.43,173.92 			"/>
			<polygon id="triangle36_19_" class="st90" points="247.53,221.03 285.18,201.89 251.43,173.92 			"/>
			<polygon id="triangle36_18_" class="st91" points="269.65,152.29 285.18,201.89 251.43,173.92 			"/>
			<polygon id="triangle36_17_" class="st92" points="81.37,100.3 71.65,66.78 42.42,104.72 			"/>
			<polygon id="triangle36_16_" class="st93" points="8.67,148.89 16.46,92.94 42.42,104.72 			"/>
			<polygon id="triangle36_15_" class="st94" points="8.67,148.89 55.4,147.42 42.42,104.72 			"/>
			<polygon id="triangle36_14_" class="st95" points="16.46,92.94 21.14,45.78 42.42,104.72 			"/>
			<polygon id="triangle36_13_" class="st96" points="21.14,45.78 71.65,66.78 42.42,104.72 			"/>
			<polygon id="triangle36_12_" class="st97" points="55.4,147.42 81.37,100.3 42.42,104.72 			"/>
			<polygon id="triangle36_11_" class="st98" points="142.38,76.74 143.68,25.21 174.84,44.35 			"/>
			<polygon id="triangle36_10_" class="st99" points="142.38,76.74 177.43,85.58 174.84,44.35 			"/>
			<polygon id="triangle36_9_" class="st100" points="143.68,25.21 185.22,-20.44 174.84,44.35 			"/>
			<polygon id="triangle36_8_" class="st101" points="177.43,85.58 199.15,49.28 174.84,44.35 			"/>
			<polygon id="triangle36_7_" class="st102" points="185.22,-20.44 199.15,49.28 174.84,44.35 			"/>
			<polygon id="triangle36_6_" class="st103" points="81.37,100.3 71.65,66.78 98.15,56.28 			"/>
			<polygon id="triangle36_5_" class="st104" points="81.37,100.3 109.65,113.29 98.15,56.28 			"/>
			<polygon id="triangle36_4_" class="st105" points="71.65,66.78 95.65,9.28 98.15,56.28 			"/>
			<polygon id="triangle36_3_" class="st106" points="109.65,113.29 142.38,76.74 98.15,56.28 			"/>
			<polygon id="triangle36_2_" class="st107" points="95.65,9.28 143.68,25.21 98.15,56.28 			"/>
			<polygon id="triangle36_1_" class="st108" points="142.38,76.74 143.68,25.21 98.15,56.28 			"/>
		</g>
	</g>
</g>
<g>
	<path class="st109" d="M249.62,89.87h23.82v23.82c0,5.26-1.69,9.22-5.08,11.87c-3.39,2.66-6.98,3.98-10.77,3.98h-15.93
		c-4.34,0-8.07-1.56-11.18-4.67c-3.11-3.11-4.67-6.84-4.67-11.18V73.94c0-4.27,1.53-7.98,4.6-11.13c3.06-3.15,6.82-4.73,11.26-4.73
		h15.93c9.97,0,15.26,5.28,15.85,15.85h-7.96c-0.62-5.26-3.25-7.89-7.89-7.89h-7.96c-2.18,0-4.06,0.78-5.62,2.33
		c-1.56,1.55-2.34,3.4-2.34,5.56v39.75c0,2.18,0.78,4.04,2.34,5.58c1.56,1.54,3.44,2.31,5.62,2.31c5.06-0.25,7.72-2.88,7.96-7.89
		V97.76h-7.96V89.87z"/>
	<path class="st109" d="M281.96,129.55V58.09h31.79c4.34,0,8.07,1.56,11.18,4.69c3.11,3.13,4.67,6.85,4.67,11.17v4.32
		c0,3.55-1.22,6.97-3.65,10.25c-2.43,3.29-6.5,4.93-12.21,4.93h7.89c2.18,0,4.06,0.78,5.62,2.34c1.56,1.56,2.34,3.44,2.34,5.62
		v28.14h-15.85v-23.82c0-2.18-0.79-4.06-2.36-5.62c-1.57-1.56-3.44-2.34-5.6-2.34h-7.96v31.78H281.96z M297.82,89.87h7.96
		c2.16,0,4.03-0.79,5.6-2.36c1.58-1.57,2.36-3.44,2.36-5.6v-7.96c0-2.16-0.79-4.01-2.36-5.56c-1.57-1.55-3.44-2.33-5.6-2.33h-7.96
		V89.87z"/>
	<path class="st109" d="M338.12,129.55v-55.6c0-4.34,1.56-8.07,4.67-11.18c3.11-3.11,6.84-4.67,11.18-4.67h15.93
		c4.34,0,8.07,1.56,11.18,4.69c3.11,3.13,4.67,6.85,4.67,11.17v55.6H369.9V97.76h-15.93v31.78H338.12z M353.97,50.16l7.96-15.89
		h7.97l-7.97,15.89H353.97z M353.97,89.87h15.93V73.94c0-2.16-0.79-4.01-2.36-5.56c-1.57-1.55-3.44-2.33-5.6-2.33
		c-2.18,0-4.06,0.78-5.62,2.33c-1.56,1.55-2.34,3.4-2.34,5.56V89.87z"/>
	<path class="st109" d="M394.27,129.55V58.09h39.67v7.97h-23.82v23.82h15.93v7.89h-15.93v31.78H394.27z"/>
	<path class="st109" d="M450.43,129.55V58.09h15.89v71.46H450.43z"/>
	<path class="st109" d="M530.48,113.69c-0.69,10.57-5.98,15.85-15.85,15.85H498.7c-4.34,0-8.07-1.56-11.18-4.67
		c-3.11-3.11-4.67-6.84-4.67-11.18V73.94c0-4.27,1.53-7.98,4.6-11.13c3.06-3.15,6.82-4.73,11.26-4.73h15.93
		c9.97,0,15.26,5.28,15.85,15.85h-7.96c-0.62-5.26-3.25-7.89-7.89-7.89h-7.97c-2.18,0-4.06,0.78-5.62,2.33
		c-1.56,1.55-2.34,3.4-2.34,5.56v39.75c0,2.13,0.77,3.98,2.33,5.55c1.55,1.56,3.43,2.35,5.64,2.35h7.97c4.66,0,7.29-2.63,7.89-7.89
		H530.48z"/>
	<path class="st109" d="M539,129.55v-55.6c0-4.34,1.56-8.07,4.67-11.18c3.11-3.11,6.84-4.67,11.18-4.67h15.93
		c4.34,0,8.07,1.56,11.18,4.69c3.11,3.13,4.67,6.85,4.67,11.17v55.6h-15.85V97.76h-15.93v31.78H539z M554.85,89.87h15.93V73.94
		c0-2.16-0.79-4.01-2.36-5.56c-1.57-1.55-3.44-2.33-5.6-2.33c-2.18,0-4.06,0.78-5.62,2.33c-1.56,1.55-2.34,3.4-2.34,5.56V89.87z"/>
</g>
<g>
	<path class="st110" d="M316.6,164.97c0,2.51-0.43,4.81-1.29,6.91c-0.86,2.1-1.98,3.83-3.35,5.19c-1.53,1.52-3.16,2.62-4.87,3.31
		c-1.72,0.69-3.56,1.03-5.52,1.03c-1.92,0-3.73-0.33-5.43-0.99c-1.7-0.66-3.23-1.64-4.6-2.94c-1.5-1.41-2.71-3.19-3.63-5.33
		c-0.92-2.14-1.38-4.56-1.38-7.24c0-2.38,0.36-4.56,1.09-6.52c0.73-1.96,1.82-3.72,3.27-5.28c1.35-1.46,2.95-2.58,4.8-3.38
		s3.81-1.2,5.87-1.2c2.09,0,4.02,0.38,5.8,1.13c1.78,0.75,3.32,1.79,4.62,3.12c1.52,1.55,2.66,3.37,3.45,5.47
		C316.21,160.37,316.6,162.61,316.6,164.97z M312.65,165.35c0-2.01-0.34-3.99-1.01-5.93c-0.67-1.94-1.7-3.57-3.08-4.89
		c-0.93-0.9-1.97-1.59-3.13-2.09c-1.15-0.5-2.45-0.74-3.87-0.74c-1.4,0-2.69,0.25-3.89,0.76c-1.2,0.5-2.29,1.24-3.27,2.22
		c-1.24,1.24-2.21,2.77-2.89,4.6c-0.69,1.83-1.04,3.73-1.04,5.71c0,2.23,0.35,4.23,1.06,5.99c0.71,1.77,1.7,3.26,2.99,4.48
		c0.88,0.85,1.93,1.54,3.14,2.06c1.21,0.52,2.5,0.78,3.88,0.78c1.38,0,2.67-0.25,3.87-0.76c1.2-0.5,2.29-1.23,3.27-2.17
		c1.16-1.11,2.12-2.54,2.86-4.26C312.28,169.37,312.65,167.45,312.65,165.35z"/>
	<path class="st110" d="M363.3,149.41c-0.03,2.43-0.06,5.21-0.08,8.34c-0.02,3.13-0.03,5.38-0.03,6.76c0,4.4,0.01,7.89,0.05,10.49
		c0.03,2.59,0.05,3.98,0.05,4.15l-3.09,1.51c-4.68-6.32-9.05-12.02-13.11-17.11c-4.07-5.09-6.42-8.02-7.05-8.81l-0.05,0.02
		c0,4.15,0.03,9.25,0.08,15.29c0.05,6.05,0.09,9.53,0.1,10.46h-3.62c0.01-0.39,0.04-1.77,0.07-4.14c0.03-2.37,0.05-5.67,0.05-9.9
		c0-1.69-0.01-3.93-0.02-6.72c-0.02-2.8-0.05-5.76-0.09-8.89l3.53-1.67c0.28,0.36,2.65,3.37,7.12,9.03
		c4.47,5.66,8.68,10.93,12.62,15.79l0.05-0.02c0-2.38-0.03-6.39-0.09-12.04c-0.06-5.64-0.09-9.82-0.09-12.55H363.3z"/>
	<path class="st110" d="M404.69,180.47c-0.19,0-1.17-0.01-2.94-0.02c-1.77-0.02-4.04-0.02-6.8-0.02c-1.81,0-3.53,0.01-5.17,0.02
		c-1.63,0.02-3.02,0.02-4.15,0.02c0.03-2.66,0.06-5.36,0.08-8.09c0.02-2.73,0.04-5.42,0.04-8.05c0-4.4-0.02-7.75-0.05-10.06
		c-0.03-2.31-0.06-3.93-0.07-4.85h3.83c-0.03,2-0.05,4.3-0.07,6.92c-0.02,2.62-0.02,4.76-0.02,6.43c0,4.07,0.01,7.47,0.02,10.19
		c0.02,2.72,0.02,4.16,0.02,4.32c0.63,0,1.4,0,2.3,0.01c0.9,0.01,1.71,0.01,2.44,0.01c2.77,0,5.18-0.01,7.24-0.03
		c2.05-0.02,3.15-0.03,3.29-0.03V180.47z"/>
	<path class="st110" d="M426.68,180.52h-3.83c0.02-0.93,0.04-2.59,0.07-4.97c0.03-2.38,0.05-5.81,0.05-10.27
		c0-1.77-0.01-4.08-0.02-6.95c-0.01-2.87-0.05-5.84-0.09-8.92h3.83c-0.03,2.21-0.06,4.79-0.08,7.72c-0.02,2.94-0.03,5.33-0.03,7.19
		c0,4.71,0.02,8.35,0.05,10.93C426.64,177.83,426.66,179.59,426.68,180.52z"/>
	<path class="st110" d="M475.82,149.41c-0.03,2.43-0.06,5.21-0.08,8.34c-0.02,3.13-0.03,5.38-0.03,6.76c0,4.4,0.01,7.89,0.05,10.49
		c0.03,2.59,0.05,3.98,0.05,4.15l-3.09,1.51c-4.68-6.32-9.05-12.02-13.11-17.11c-4.07-5.09-6.42-8.02-7.05-8.81l-0.05,0.02
		c0,4.15,0.03,9.25,0.08,15.29s0.09,9.53,0.1,10.46h-3.62c0.01-0.39,0.04-1.77,0.07-4.14c0.03-2.37,0.05-5.67,0.05-9.9
		c0-1.69-0.01-3.93-0.02-6.72c-0.02-2.8-0.05-5.76-0.09-8.89l3.53-1.67c0.28,0.36,2.65,3.37,7.12,9.03
		c4.47,5.66,8.68,10.93,12.62,15.79l0.05-0.02c0-2.38-0.03-6.39-0.09-12.04c-0.06-5.64-0.09-9.82-0.09-12.55H475.82z"/>
	<path class="st110" d="M517.93,180.47c-0.14,0-1.17-0.01-3.09-0.02c-1.92-0.02-4.3-0.02-7.13-0.02c-1.97,0-3.77,0.01-5.4,0.02
		c-1.63,0.02-3.02,0.02-4.15,0.02c0.03-0.9,0.06-2.84,0.08-5.83c0.02-2.99,0.04-6.08,0.04-9.27c0-1.75-0.01-4.07-0.02-6.95
		s-0.05-5.86-0.09-8.94c1.1,0,2.47,0.01,4.12,0.02c1.65,0.02,3.35,0.02,5.1,0.02c2.96,0,5.37-0.01,7.22-0.02
		c1.86-0.02,2.87-0.02,3.02-0.02v3.23c-0.16,0-1.13-0.01-2.92-0.03c-1.79-0.02-4.02-0.03-6.68-0.03c-1.16,0-2.3,0-3.41,0.01
		c-1.12,0.01-2,0.01-2.65,0.01c0,1.75-0.02,3.5-0.05,5.24c-0.03,1.74-0.05,3.39-0.05,4.94c0.7,0,1.52,0,2.47,0.01
		c0.95,0.01,1.8,0.01,2.54,0.01c2.73,0,5.16-0.01,7.31-0.03c2.14-0.02,3.29-0.03,3.43-0.03V166c-0.13,0-1.4-0.01-3.83-0.03
		c-2.43-0.02-4.65-0.03-6.67-0.03c-0.74,0-1.63,0-2.66,0.01c-1.03,0.01-1.89,0.01-2.59,0.01c0,2.93,0.01,5.25,0.02,6.97
		c0.02,1.72,0.03,3.16,0.05,4.32c0.91,0.02,2.02,0.03,3.32,0.03c1.3,0.01,2.7,0.01,4.2,0.01c2.31,0,4.25-0.01,5.82-0.02
		c1.57-0.02,2.45-0.02,2.64-0.02V180.47z"/>
</g>
</svg>
