<?xml version="1.0" encoding="utf-8"?>
<!-- Generator: Adobe Illustrator 24.0.1, SVG Export Plug-In . SVG Version: 6.00 Build 0)  -->
<svg version="1.1"
	 id="svg29" xmlns:cc="http://creativecommons.org/ns#" xmlns:dc="http://purl.org/dc/elements/1.1/" xmlns:inkscape="http://www.inkscape.org/namespaces/inkscape" xmlns:rdf="http://www.w3.org/1999/02/22-rdf-syntax-ns#" xmlns:sodipodi="http://sodipodi.sourceforge.net/DTD/sodipodi-0.dtd" xmlns:svg="http://www.w3.org/2000/svg"
	 xmlns="http://www.w3.org/2000/svg" xmlns:xlink="http://www.w3.org/1999/xlink" x="0px" y="0px" viewBox="0 0 700 301.5"
	 style="enable-background:new 0 0 700 301.5;" xml:space="preserve">
<style type="text/css">
	.st0{fill:#004E9F;}
	.st1{fill:#FFB30E;}
</style>
<sodipodi:namedview  bordercolor="#666666" borderopacity="1" gridtolerance="10" guidetolerance="10" id="namedview31" inkscape:current-layer="svg29" inkscape:cx="-235.88253" inkscape:cy="178.32039" inkscape:pageopacity="0" inkscape:pageshadow="2" inkscape:window-height="838" inkscape:window-maximized="1" inkscape:window-width="1600" inkscape:window-x="-8" inkscape:window-y="-8" inkscape:zoom="0.47073817" objecttolerance="10" pagecolor="#ffffff" showgrid="false">
	</sodipodi:namedview>
<g id="melhorenvio" transform="matrix(2.304505,0,0,2.304505,88.701929,229.91121)" inkscape:export-filename="C:\Users\alex\sites\melhor-envio-logo-4.png" inkscape:export-xdpi="73.479294" inkscape:export-ydpi="73.479294">
	<path id="path2" inkscape:connector-curvature="0" class="st0" d="M180.1-68.8v6.3c-3.5,0-6.3,2.8-6.3,6.3v19.6h-6.3v-19.6
		C167.5-63.1,173.1-68.8,180.1-68.8"/>
	<path id="path4" inkscape:connector-curvature="0" class="st0" d="M31.6-68.8c-3.8,0-7.2,1.7-9.5,4.3c-2.3-2.6-5.7-4.3-9.5-4.3
		C5.7-68.8,0-63.1,0-56.2v19.6h6.3v-19.6c0-3.5,2.8-6.3,6.3-6.3c3.5,0,6.3,2.8,6.3,6.3v19.6h6.3v-19.6c0-3.5,2.8-6.3,6.3-6.3
		c3.5,0,6.3,2.8,6.3,6.3v19.6h6.3v-19.6C44.2-63.1,38.5-68.8,31.6-68.8"/>
	<path id="path6" inkscape:connector-curvature="0" class="st0" d="M97.3-36.6v-6.3c-3.5,0-6.3-2.8-6.3-6.3v-35.7h-6.3v35.7
		C84.7-42.3,90.3-36.6,97.3-36.6"/>
	<path id="path8" inkscape:connector-curvature="0" class="st0" d="M114.1-68.8c-2.3,0-4.5,0.6-6.3,1.7v-17.7h-6.3v28.6v19.6h6.3
		v-19.6c0-3.5,2.8-6.3,6.3-6.3c3.5,0,6.3,2.8,6.3,6.3v19.6h6.3v-19.6C126.7-63.1,121.1-68.8,114.1-68.8"/>
	<path id="path10" inkscape:connector-curvature="0" class="st0" d="M80.1-55.8c-1.5-7.3-7.9-12.8-15.7-12.8s-14.2,5.5-15.7,12.8
		c-0.2,1-0.3,2.1-0.3,3.2c0,1.1,0.1,2.1,0.3,3.2c1.5,7.3,7.9,12.8,15.7,12.8c5.3,0,10-2.6,12.9-6.5l-5.1-3.7
		c-1.8,2.4-4.6,3.9-7.8,3.9c-4.3,0-7.9-2.7-9.2-6.5h24.9c0.2-1,0.3-2.1,0.3-3.2C80.4-53.7,80.3-54.8,80.1-55.8 M64.4-62.3
		c4.3,0,7.9,2.7,9.2,6.5H55.2C56.6-59.6,60.2-62.3,64.4-62.3"/>
	<path id="path12" inkscape:connector-curvature="0" class="st0" d="M147.2-68.8c-8.9,0-16.1,7.2-16.1,16.1
		c0,8.9,7.2,16.1,16.1,16.1s16.1-7.2,16.1-16.1C163.2-61.6,156-68.8,147.2-68.8 M147.2-42.9c-5.4,0-9.8-4.4-9.8-9.8
		c0-5.4,4.4-9.8,9.8-9.8c5.4,0,9.8,4.4,9.8,9.8C156.9-47.3,152.6-42.9,147.2-42.9"/>
	<rect id="rect14" x="167.2" y="-30" class="st0" width="6.3" height="32"/>
	<path id="path16" inkscape:connector-curvature="0" class="st0" d="M97-17.1c-1.5-7.3-7.9-12.8-15.6-12.8s-14.2,5.5-15.6,12.8
		c-0.2,1-0.3,2.1-0.3,3.2c0,1.1,0.1,2.1,0.3,3.2C67.2-3.5,73.7,2,81.4,2c5.3,0,9.9-2.5,12.8-6.5l-5-3.7c-1.8,2.4-4.6,3.9-7.8,3.9
		c-4.2,0-7.8-2.7-9.1-6.5H97c0.2-1,0.3-2.1,0.3-3.2C97.3-15,97.2-16.1,97-17.1 M81.4-23.6c4.2,0,7.8,2.7,9.1,6.5H72.3
		C73.6-20.9,77.2-23.6,81.4-23.6"/>
	<path id="path18" inkscape:connector-curvature="0" class="st0" d="M114.1-30.2c-7,0-12.6,5.7-12.6,12.6V2h6.3v-19.6
		c0-3.5,2.8-6.3,6.3-6.3c3.5,0,6.3,2.8,6.3,6.3V2h6.3v-19.6C126.7-24.5,121.1-30.2,114.1-30.2"/>
	<path id="path20" inkscape:connector-curvature="0" class="st0" d="M193.8-30.2c-8.9,0-16.1,7.2-16.1,16.1
		c0,8.9,7.2,16.1,16.1,16.1c8.9,0,16.1-7.2,16.1-16.1C209.9-23,202.7-30.2,193.8-30.2 M193.8-4.3c-5.4,0-9.8-4.4-9.8-9.8
		c0-5.4,4.4-9.8,9.8-9.8c5.4,0,9.8,4.4,9.8,9.8C203.6-8.7,199.2-4.3,193.8-4.3"/>
	<polygon id="polygon22" class="st0" points="156.3,-29.8 147.2,-6.8 138,-29.8 131.1,-29.8 144.3,2 150,2 163.2,-29.8 	"/>
	<path id="path24" inkscape:connector-curvature="0" class="st0" d="M180.1-68.8v6.3c-3.5,0-6.3,2.8-6.3,6.3v19.6h-6.3v-19.6
		C167.5-63.1,173.1-68.8,180.1-68.8"/>
	<path id="path26" inkscape:connector-curvature="0" class="st1" d="M226.7-30.7L226.7-30.7c-0.1-1.9-0.8-3.7-2-5.3l0-0.1
		c-3.4-4.4-8.9-4.8-14-4.9c2.4-3.6,5.6-8.7,5.7-15.2c0.1-4.6-1.3-8.7-4-11.4c-1-1-2.2-1.8-3.5-2.4c-1.3-0.6-2.6-0.9-4.1-0.9
		c-2.8-0.1-5.5,1-7.6,3.1c-2.1,2.1-2.8,4.7-3.4,6.9l0,0.1c0,0,0,0,0,0c-0.4,1.7-1.1,3.2-2.2,4.6l-1.5,2l-0.5,0.6l-0.1,0.1
		c-0.1,0.1-0.2,0.3-0.4,0.4c-0.2,0.2-0.3,0.4-0.5,0.6c-1.2,1.4-2.6,2.9-4.3,4.4l-0.1,0c-1.6,1.5-3.4,3-4.9,4.3v4.3v2.8
		c0,0,6.3-4.6,8.9-7c1.9-1.7,3.6-3.5,4.9-5l0.1-0.2c0.1-0.1,0.2-0.3,0.4-0.4c0.2-0.2,0.3-0.4,0.5-0.7l0.5-0.6l2-2.7
		c1.1-1.6,2-3.3,2.5-5.2c0.1-0.3,0.2-0.7,0.3-1.1c0.5-1.7,0.8-3.2,1.9-4.2c0.2-0.2,0.5-0.4,0.9-0.6c0.7-0.3,2.3-0.7,3.7-0.4
		c1.2,0.2,2.2,1.1,2.3,1.2c1.5,1.5,2.4,4.1,2.3,7.1l0,0c-0.1,5.4-3.1,9.7-5.3,12.9L205-43c-1,1.2-1.6,2.3-2.2,3.6l-1.7,3.8l4.2,0.3
		c0.7,0.1,1.5,0.1,2.2,0.1c0.7,0,1.3,0,1.9,0.1l0.2,0c4.6,0.1,8.6,0.2,10.4,2.6c0.5,0.8,0.8,1.5,0.9,2.2c0.1,1.2-0.1,2.3-0.5,3.4
		c-0.8,2.1-1,4.5-0.6,6.8c0.2,1,0.2,2.1,0,3l0,0c-0.2,1.4-0.9,2.9-2,4.4c-0.4,0.5-0.9,1.2-1.2,2.1l-0.1,0.2
		c-0.3,0.9-0.5,1.9-0.5,2.9c0,0.9-0.5,2.3-0.9,3.3c-0.4,1-0.9,1.9-1.6,2.7c-0.5,0.7-1.2,1.5-1.7,1.9l-0.1,0.1
		c-0.5,0.4-1.3,1.1-1.8,1.9l-0.1,0.1L209.8,3c-2.1,3.2-3.4,5.2-5.4,6.9c-1.6,1.4-3.6,2.3-5.7,2.8c-0.6,0.2-1.2,0.3-1.8,0.4
		c-1.5,0.2-3,0.4-4.3,0.4c-5.1,0-10.1-0.6-14.9-1.8l0,0c-2.7-0.6-6.2-1.4-10-1.7l-2.5,0l-99.2,0c-0.6,0-0.6,0.9,0,0.9l101.3,4.9
		c3.3,0.3,6.6,1,9,1.6c5.3,1.3,10.7,2,16.3,2c1.8,0,3.5-0.2,5.1-0.4l0,0c0.8-0.1,2.3-0.5,3.5-0.8c1.5-0.4,2.9-1,4.1-1.7
		c4.4-2.6,6.3-5.5,9.1-9.9l0.3-0.5c0.1-0.1,0.3-0.4,0.6-0.7c1.7-1.3,3.2-2.9,4.2-4.8c1.5-2.3,2.3-5,2.3-7.8c0-0.3,0.1-0.7,0.1-1
		c0.1-0.2,0.3-0.5,0.4-0.7c1.7-2.2,2.7-4.6,3.1-7c0.3-1.6,0.3-3.2,0-4.9l0-0.1c-0.2-1.4-0.1-2.7,0.3-3.8l0,0
		C226.6-26.7,226.9-28.6,226.7-30.7"/>
</g>
</svg>
