<?xml version="1.0" encoding="utf-8"?>
<!-- Generator: Adobe Illustrator 24.0.1, SVG Export Plug-In . SVG Version: 6.00 Build 0)  -->
<svg version="1.1" id="Camada_1" xmlns="http://www.w3.org/2000/svg" xmlns:xlink="http://www.w3.org/1999/xlink" x="0px" y="0px"
	 viewBox="0 0 943 225.2" style="enable-background:new 0 0 943 225.2;" xml:space="preserve">
<style type="text/css">
	.st0{fill-rule:evenodd;clip-rule:evenodd;fill:#FFFFFF;}
</style>
<path class="st0" d="M886,215.8H56c-25.7,0-46.5-20.8-46.5-46.5V60.6c0-25.7,20.8-46.5,46.5-46.5h830c25.7,0,46.5,20.8,46.5,46.5
	v108.6C932.5,195,911.7,215.8,886,215.8z M95.8,83.1H75.9v56.2h10.4v-20.2h9.4c11.4,0,19.6-7.3,19.6-18S107.2,83.1,95.8,83.1
	L95.8,83.1z M141.6,97.5c-12.3,0-21.1,8.8-21.1,21.4c0,12.5,8.7,21.4,21.1,21.4s21-8.9,21-21.4C162.6,106.3,154,97.5,141.6,97.5z
	 M218.4,98.4l-8.2,27.8l-8.2-27.8h-9.5l-8.2,27.8l-8.2-27.8h-10.4l14,40.8h9.4l8.2-27.8l8.3,27.8h9.4l14-40.8L218.4,98.4z
	 M251.9,97.5c-11.7,0-20.2,8.7-20.2,21.1c0,12.7,8.6,21.7,21,21.7c4.6,0,9.2-1.1,13.9-3.2v-8.7c-4.2,2.5-8.4,3.8-12.2,3.8
	c-6.9,0-11.8-4.2-12.4-10.4h27.7c0.2-1.4,0.2-2.7,0.2-3.8C269.8,105.9,262.5,97.5,251.9,97.5L251.9,97.5z M302.1,97.9
	c-1.1-0.3-2.3-0.4-3.4-0.4c-3.5,0-7.1,1.8-10,5.1v-4.1h-10.4v40.8h10.4V112c2.7-3.4,6.4-5.3,9.8-5.3c1.2,0,2.5,0.2,3.7,0.5V97.9z
	 M326,97.5c-11.7,0-20.2,8.7-20.2,21.1c0,12.7,8.6,21.7,21,21.7c4.6,0,9.2-1.1,13.9-3.2v-8.7c-4.2,2.5-8.4,3.8-12.2,3.8
	c-6.8,0-11.8-4.2-12.4-10.4h27.7c0.2-1.4,0.2-2.7,0.2-3.8C343.9,105.9,336.7,97.5,326,97.5L326,97.5z M388.8,80.6h-10.5v20.7
	c-3.2-2.5-6.8-3.8-10.4-3.8c-10.9,0-18.4,8.8-18.4,21.4c0,12.6,7.6,21.4,18.4,21.4c3.6,0,7.2-1.3,10.4-3.8v2.9h10.5V80.6z
	 M441.4,97.5c-3.5,0-7.1,1.3-10.4,3.8V80.6h-10.4v58.7h10.4v-2.9c3.3,2.5,6.9,3.8,10.4,3.8c10.9,0,18.4-8.8,18.4-21.4
	C459.9,106.3,452.4,97.5,441.4,97.5z M492.8,98.4l-9.9,26.8l-9.8-26.8h-10.7l15.6,39.3l-7.8,19.3h10.1l23.2-58.7H492.8z M576.5,93.9
	c6.7,0,15.2,2,21.9,5.7V78.8c-7.3-2.9-14.6-4-21.9-4c-17.9,0-29.8,9.3-29.8,24.9c0,24.4,33.5,20.4,33.5,30.9c0,4.1-3.5,5.4-8.4,5.4
	c-7.3,0-16.7-3-24.1-7v21c8.2,3.5,16.5,5,24.1,5c18.3,0,30.9-9,30.9-24.9c0-26.3-33.7-21.5-33.7-31.5
	C569.1,95.2,571.9,93.9,576.5,93.9L576.5,93.9z M646.9,76.3h-16.7l0-19.1l-21.5,4.6l-0.1,70.7c0,13,9.8,22.7,22.9,22.7
	c7.2,0,12.5-1.3,15.5-2.9v-17.9c-2.8,1.1-16.7,5.2-16.7-7.8V95.1h16.7L646.9,76.3z M694.2,76.3c-2.9-1.1-13.2-3-18.4,6.5l-1.4-6.5
	h-19v77.2h22v-52.3c5.2-6.8,14-5.5,16.8-4.6L694.2,76.3z M723.1,46.9L701,51.6v17.9l22.1-4.7V46.9z M723.1,76.3H701v77.2h22.1V76.3z
	 M770.6,74.8c-8.6,0-14.2,4.1-17.3,6.9l-1.1-5.4h-19.4l0,102.8l22-4.7l0-24.9c3.2,2.3,7.9,5.6,15.6,5.6c15.8,0,30.2-12.7,30.2-40.7
	C800.6,88.7,786.1,74.8,770.6,74.8L770.6,74.8z M839.8,74.8c-21,0-33.7,17.8-33.7,40.2c0,26.6,15,40,36.5,40
	c10.5,0,18.4-2.4,24.4-5.7v-17.7c-6,3-12.9,4.9-21.6,4.9c-8.6,0-16.1-3-17.1-13.4h43.1c0.1-1.2,0.3-5.8,0.3-7.9
	C871.7,92.6,860.7,74.8,839.8,74.8z M839.7,92.8c5.4,0,11.1,4.2,11.1,14.1H828C828,96.9,834.2,92.8,839.7,92.8z M765.3,135.6
	c-5.2,0-8.2-1.9-10.4-4.2l-0.1-32.7c2.3-2.5,5.5-4.4,10.5-4.4c8.1,0,13.6,9,13.6,20.5C778.9,126.7,773.5,135.6,765.3,135.6
	L765.3,135.6z M439.2,131.2c-2.9,0-5.7-1.2-8.2-3.7v-17.5c2.4-2.5,5.3-3.7,8.2-3.7c5.9,0,10,5.1,10,12.4
	C449.2,126.2,445.1,131.2,439.2,131.2z M370.2,131.2c-6,0-10-5.1-10-12.4s4.1-12.4,10-12.4c2.9,0,5.7,1.2,8.1,3.7v17.5
	C375.9,130,373.1,131.2,370.2,131.2z M325.6,105.5c4.6,0,8,3.8,8.3,9.4h-17.8C316.6,109.3,320.5,105.5,325.6,105.5L325.6,105.5z
	 M251.4,105.5c4.7,0,8,3.8,8.3,9.4H242C242.5,109.3,246.4,105.5,251.4,105.5L251.4,105.5z M141.6,131.5c-6.1,0-10.4-5.1-10.4-12.7
	s4.2-12.7,10.4-12.7c6,0,10.3,5.1,10.3,12.7S147.7,131.5,141.6,131.5z M94.3,110.6h-7.9v-19h7.9c6,0,10.3,3.8,10.3,9.5
	C104.6,106.8,100.3,110.6,94.3,110.6z"/>
</svg>
